<?xml version="1.0" encoding="UTF-8"?>
<svg id="Layer_1" data-name="Layer 1" xmlns="http://www.w3.org/2000/svg" viewBox="0 0 144.72 50.73">
  <defs>
    <style>
      .cls-1 {
        fill: #27396a;
      }

      .cls-1, .cls-2 {
        stroke-width: 0px;
      }

      .cls-2 {
        fill: #dc9542;
      }
    </style>
  </defs>
  <g>
    <path class="cls-2" d="m14.97,10.02h9.51l11.83,30.68h-9.91l-1.56-4.51h-10.8l-1.56,4.51H3.19L14.97,10.02Zm1.16,19.99h6.6l-2.01-6.01c-.49-1.5-1.21-3.95-1.21-3.95h-.09s-.67,2.44-1.21,3.95l-2.1,6.01Z"/>
    <path class="cls-2" d="m45.09,22.12h.13c1.83-2.75,4.02-3.77,6.92-3.77.67,0,1.12.09,1.38.21v6.91h-.18c-4.95-.82-7.85,1.33-7.85,6.26v8.97h-8.43v-21.88h8.03v3.3Z"/>
    <path class="cls-2" d="m61.33,29.33l-6.92-10.51h9.68l2.68,4.98h.09l2.63-4.98h8.97l-6.52,10.34,7.41,11.54h-9.68l-3.21-5.83h-.09l-3.39,5.83h-9.19l7.54-11.37Z"/>
    <path class="cls-1" d="m80.79,10.02h24.86v7.29h-15.53v4.16h12.99v6.74h-12.99v4.81h15.98v7.68h-25.3V10.02Z"/>
    <path class="cls-1" d="m106.67,29.71c0-6.86,4.11-11.58,10.18-11.58,3.26,0,4.86,1.16,6.34,3h.13v-11.11h8.43v30.68h-8.03v-3.05h-.09c-1.47,2.45-3.88,3.77-6.69,3.77-5.89,0-10.26-4.16-10.26-11.71Zm16.87-.13c0-3.13-1.7-5.62-4.19-5.62s-4.11,2.27-4.11,5.62,1.61,5.71,4.11,5.71,4.19-2.53,4.19-5.71Z"/>
  </g>
  <g>
    <path class="cls-1" d="m133.21,10.06h4.11v.55h-1.73v4.44h-.65v-4.44h-1.73v-.55Z"/>
    <path class="cls-1" d="m137.96,10.06h.83l1.68,4.15h.01l1.67-4.15h.85v4.99h-.62v-4.1h-.01s-.14.39-.23.63l-1.42,3.48h-.5l-1.42-3.48c-.1-.25-.23-.63-.23-.63h-.01v4.1h-.59v-4.99Z"/>
  </g>
</svg>