<?xml version="1.0" encoding="UTF-8"?>
<svg id="Layer_1" data-name="Layer 1" xmlns="http://www.w3.org/2000/svg" viewBox="0 0 89.24 90.07">
  <defs>
    <style>
      .cls-1 {
        fill: #27396a;
      }

      .cls-1, .cls-2, .cls-3 {
        stroke-width: 0px;
      }

      .cls-2 {
        fill: #fff;
      }

      .cls-3 {
        fill: #dc9542;
      }
    </style>
  </defs>
  <g>
    <path class="cls-1" d="m8.77,67.67h3.82l4.76,12.33h-3.98l-.63-1.81h-4.34l-.63,1.81h-3.73l4.74-12.33Zm.47,8.04h2.66l-.81-2.41c-.2-.6-.48-1.59-.48-1.59h-.04s-.27.98-.48,1.59l-.84,2.41Z"/>
    <path class="cls-1" d="m21.33,72.41h.05c.74-.96,1.67-1.48,2.94-1.48,2.12,0,3.21,1.36,3.21,3.38v5.69h-3.39v-4.9c0-.91-.39-1.52-1.27-1.52s-1.38.72-1.38,1.67v4.74h-3.39v-8.79h3.23v1.21Z"/>
    <path class="cls-1" d="m34.34,79.03h-.04c-.61.81-1.58,1.19-2.76,1.19-1.76,0-3.05-.91-3.05-2.64,0-1.95,1.56-2.52,3.32-2.71,1.94-.21,2.46-.43,2.46-.98,0-.48-.23-.84-.97-.84s-1.11.41-1.2,1.05h-3.21c.07-1.74,1.47-3.17,4.34-3.17,1.4,0,2.3.17,3,.59.95.57,1.42,1.47,1.42,2.64v4.4c0,.74.05,1.14.34,1.31v.14h-3.34c-.13-.21-.23-.48-.3-.97Zm.02-2.22v-.78c-.32.16-.74.29-1.31.41-.99.21-1.29.48-1.29,1,0,.59.5.84,1.06.84.79,0,1.54-.43,1.54-1.48Z"/>
    <path class="cls-1" d="m39.15,67.67h3.48v12.33h-3.48v-12.33Z"/>
    <path class="cls-1" d="m44.47,80.39h1.13c.75,0,1.06-.19,1.06-.66,0-.28-.2-.74-.41-1.26l-2.92-7.28h3.57l1.13,3.54c.29.9.54,2.14.54,2.14h.04s.27-1.24.56-2.14l1.11-3.54h3.37l-3.12,8.79c-.77,2.17-1.85,2.91-3.7,2.91h-2.35v-2.52Z"/>
    <path class="cls-1" d="m54.21,71.2h1.18v-2.84h3.32v2.84h1.74v1.97h-1.74v3.57c0,.88.65.9,1.71.83v2.4c-.52.12-1.06.21-1.67.21-2.23,0-3.36-.6-3.36-2.71v-4.29h-1.18v-1.97Z"/>
    <path class="cls-1" d="m61.55,67.67h3.39v2.47h-3.39v-2.47Zm0,3.53h3.39v8.79h-3.39v-8.79Z"/>
    <path class="cls-1" d="m66,75.62c0-2.67,2.01-4.67,5.02-4.67,2.58,0,4.31,1.47,4.54,3.52h-3.27c-.18-.79-.57-1.24-1.31-1.24-1.04,0-1.54.91-1.54,2.4s.54,2.36,1.58,2.36c.83,0,1.24-.53,1.33-1.53h3.27c0,2.17-1.85,3.83-4.59,3.83-3.01,0-5.02-1.98-5.02-4.66Z"/>
    <path class="cls-1" d="m76.08,77.15h3.25c.05.72.52,1.16,1.38,1.16.66,0,1.17-.22,1.17-.76,0-.72-1.06-.81-2.24-.98-1.54-.22-3.32-.62-3.32-2.83,0-1.81,1.92-2.81,4.16-2.81,2.78,0,4.23,1,4.36,2.72h-3.19c-.09-.66-.59-.79-1.15-.79-.5,0-.97.19-.97.64,0,.5.84.6,1.88.74,1.67.22,3.79.59,3.79,3.03,0,2.1-1.99,3.02-4.5,3.02-2.71,0-4.59-1.12-4.61-3.14Z"/>
  </g>
  <g>
    <g>
      <g>
        <path class="cls-3" d="m66.88,11.66l-.14-.07c-2.96-1.53-10.95-5.13-21.23-5.38h-.44c-.19,0-.39-.01-.58-.01-10.27,0-18.63,3.77-21.75,5.39l-.11.06-1.11.57.09,1.24.06.78c.49,6.49,1.22,16.29,4.47,23.2,4.05,8.6,10.77,15.5,17.3,21.83l1.3,1.26,1.3-1.26c7.93-7.68,13.59-14.01,17.26-21.83,3.28-6.98,4.06-17.26,4.52-23.41l.04-.57.09-1.23-1.1-.57Z"/>
        <path class="cls-3" d="m23.49,13.31c.46,6.06,1.12,16.44,4.35,23.32,3.74,7.95,9.82,14.42,16.91,21.28,7.09-6.86,13.13-13.33,16.87-21.28,3.24-6.88,3.93-17.25,4.39-23.32-.04-.02-.09-.04-.13-.07-4.93-2.56-12.35-4.97-20.42-5.17h-.42c-8.51-.12-16.29,2.49-21.44,5.17h-.02s-.06.05-.09.06Z"/>
      </g>
      <g>
        <path class="cls-2" d="m23.58,13.27s-.06.03-.09.05c.46,6.06,1.12,16.44,4.35,23.32.81,1.71,1.72,3.35,2.73,4.94v-11.85c1.9.7,4.28,1.51,5.28,1.89v17.01c2.5,2.91,5.28,5.75,8.25,8.64V8.08c-8.14.08-15.54,2.59-20.5,5.17h-.02Zm7,3.64c2.31-.39,5.26-.38,5.26-.38v7.07s-2.27-.13-5.26-.81v-5.88Z"/>
        <path class="cls-2" d="m65.64,17.94c.15-1.69.27-3.27.37-4.62-.04-.02-.09-.04-.13-.07-4.93-2.56-12.35-4.97-20.41-5.17h-.03s0,49.16,0,49.16c6.79-6.61,12.57-12.92,16.19-20.61.9-1.91,1.6-4.1,2.15-6.38-2.82,3.14-6.98,6.86-10.09,9.6v-8.1c.51-.16,3.31-1.06,5.92-2.25,2.25-1.03,3.82-1.98,4.91-2.75.33-1.85.59-3.71.8-5.5-1.17.42-2.96.93-5.65,1.38-4.6.77-5.71.91-5.97.93v-6.91c.81.02,7.5.23,11.96,1.29Z"/>
      </g>
    </g>
    <g>
      <path class="cls-3" d="m52.92,55.66h3.25v.44h-1.37v3.52h-.52v-3.52h-1.37v-.44Z"/>
      <path class="cls-3" d="m56.69,55.66h.66l1.33,3.28h.01l1.32-3.28h.67v3.95h-.49v-3.25h-.01s-.11.31-.18.5l-1.13,2.75h-.4l-1.13-2.75c-.08-.2-.18-.5-.18-.5h-.01v3.25h-.47v-3.95Z"/>
    </g>
  </g>
</svg>