<?xml version="1.0" encoding="UTF-8"?>
<svg id="Layer_1" data-name="Layer 1" xmlns="http://www.w3.org/2000/svg" viewBox="0 0 58.49 64.19">
  <defs>
    <style>
      .cls-1 {
        fill: #27396a;
      }

      .cls-1, .cls-2 {
        stroke-width: 0px;
      }

      .cls-2 {
        fill: #dc9542;
      }
    </style>
  </defs>
  <g>
    <path class="cls-2" d="m6.45,11.18s-.07.04-.1.05c.49,6.53,1.2,17.71,4.69,25.12.87,1.84,1.86,3.61,2.94,5.32v-12.76c2.05.75,4.61,1.62,5.68,2.04v18.32c2.69,3.14,5.68,6.19,8.88,9.31V5.6c-8.76.09-16.73,2.79-22.07,5.57h-.03Zm7.54,3.92c2.48-.43,5.66-.41,5.66-.41v7.62s-2.44-.14-5.66-.88v-6.33Z"/>
    <path class="cls-1" d="m51.74,16.22c.16-1.82.29-3.52.4-4.98-.05-.02-.09-.05-.14-.07-5.31-2.75-13.3-5.35-21.98-5.57h-.04s0,52.94,0,52.94c7.31-7.12,13.53-13.91,17.43-22.19.97-2.06,1.72-4.41,2.32-6.87-3.04,3.38-7.52,7.38-10.87,10.34v-8.72c.55-.17,3.56-1.14,6.37-2.43,2.42-1.11,4.12-2.14,5.29-2.96.36-1.99.64-4,.86-5.92-1.26.46-3.18,1-6.09,1.48-4.95.83-6.14.98-6.43,1.01v-7.45c.87.02,8.08.25,12.88,1.39Z"/>
  </g>
  <g>
    <path class="cls-1" d="m37.61,54.63h3.25v.44h-1.37v3.52h-.52v-3.52h-1.37v-.44Z"/>
    <path class="cls-1" d="m41.38,54.63h.66l1.33,3.28h.01l1.32-3.28h.67v3.95h-.49v-3.25h-.01s-.11.31-.18.5l-1.13,2.75h-.4l-1.13-2.75c-.08-.2-.18-.5-.18-.5h-.01v3.25h-.47v-3.95Z"/>
  </g>
</svg>