<?xml version="1.0" encoding="UTF-8"?>
<svg id="Layer_1" data-name="Layer 1" xmlns="http://www.w3.org/2000/svg" viewBox="0 0 89.24 90.07">
  <defs>
    <style>
      .cls-1 {
        fill: #27396a;
      }

      .cls-1, .cls-2, .cls-3 {
        stroke-width: 0px;
      }

      .cls-2 {
        fill: #fff;
      }

      .cls-3 {
        fill: #dc9542;
      }
    </style>
  </defs>
  <g>
    <path class="cls-3" d="m17.86,66.01h4.33l5.38,13.96h-4.51l-.71-2.05h-4.91l-.71,2.05h-4.22l5.36-13.96Zm.53,9.1h3.01l-.91-2.73c-.22-.68-.55-1.8-.55-1.8h-.04s-.3,1.11-.55,1.8l-.95,2.73Z"/>
    <path class="cls-3" d="m31.57,71.52h.06c.83-1.25,1.83-1.72,3.15-1.72.3,0,.51.04.63.1v3.14h-.08c-2.25-.37-3.57.6-3.57,2.85v4.08h-3.84v-9.96h3.65v1.5Z"/>
    <path class="cls-3" d="m38.96,74.8l-3.15-4.78h4.41l1.22,2.26h.04l1.2-2.26h4.08l-2.96,4.7,3.37,5.25h-4.41l-1.46-2.65h-.04l-1.54,2.65h-4.18l3.43-5.17Z"/>
    <path class="cls-1" d="m47.81,66.01h11.31v3.32h-7.07v1.89h5.91v3.06h-5.91v2.19h7.27v3.49h-11.51v-13.96Z"/>
    <path class="cls-1" d="m59.59,74.97c0-3.12,1.87-5.27,4.63-5.27,1.48,0,2.21.53,2.88,1.37h.06v-5.06h3.84v13.96h-3.65v-1.39h-.04c-.67,1.11-1.77,1.72-3.05,1.72-2.68,0-4.67-1.89-4.67-5.33Zm7.68-.06c0-1.42-.77-2.56-1.91-2.56s-1.87,1.03-1.87,2.56.73,2.6,1.87,2.6,1.91-1.15,1.91-2.6Z"/>
  </g>
  <g>
    <g>
      <g>
        <path class="cls-3" d="m64.02,11.66l-.14-.07c-2.96-1.53-10.95-5.13-21.23-5.38h-.44c-.19,0-.39-.01-.58-.01-10.27,0-18.63,3.77-21.75,5.39l-.11.06-1.11.57.09,1.24.06.78c.49,6.49,1.22,16.29,4.47,23.2,4.05,8.6,10.77,15.5,17.3,21.83l1.3,1.26,1.3-1.26c7.93-7.68,13.59-14.01,17.26-21.83,3.28-6.98,4.06-17.26,4.52-23.41l.04-.57.09-1.23-1.1-.57Z"/>
        <path class="cls-3" d="m20.63,13.31c.46,6.06,1.12,16.44,4.35,23.32,3.74,7.95,9.82,14.42,16.91,21.28,7.09-6.86,13.13-13.33,16.87-21.28,3.24-6.88,3.93-17.25,4.39-23.32-.04-.02-.09-.04-.13-.07-4.93-2.56-12.35-4.97-20.42-5.17h-.42c-8.51-.12-16.29,2.49-21.44,5.17h-.02s-.06.05-.09.06Z"/>
      </g>
      <g>
        <path class="cls-2" d="m20.73,13.27s-.06.03-.09.05c.46,6.06,1.12,16.44,4.35,23.32.81,1.71,1.72,3.35,2.73,4.94v-11.85c1.9.7,4.28,1.51,5.28,1.89v17.01c2.5,2.91,5.28,5.75,8.25,8.64V8.08c-8.14.08-15.54,2.59-20.5,5.17h-.02Zm7,3.64c2.31-.39,5.26-.38,5.26-.38v7.07s-2.27-.13-5.26-.81v-5.88Z"/>
        <path class="cls-2" d="m62.79,17.94c.15-1.69.27-3.27.37-4.62-.04-.02-.09-.04-.13-.07-4.93-2.56-12.35-4.97-20.41-5.17h-.03s0,49.16,0,49.16c6.79-6.61,12.57-12.92,16.19-20.61.9-1.91,1.6-4.1,2.15-6.38-2.82,3.14-6.98,6.86-10.09,9.6v-8.1c.51-.16,3.31-1.06,5.92-2.25,2.25-1.03,3.82-1.98,4.91-2.75.33-1.85.59-3.71.8-5.5-1.17.42-2.96.93-5.65,1.38-4.6.77-5.71.91-5.97.93v-6.91c.81.02,7.5.23,11.96,1.29Z"/>
      </g>
    </g>
    <g>
      <path class="cls-3" d="m50.07,55.66h3.25v.44h-1.37v3.52h-.52v-3.52h-1.37v-.44Z"/>
      <path class="cls-3" d="m53.83,55.66h.66l1.33,3.28h.01l1.32-3.28h.67v3.95h-.49v-3.25h-.01s-.11.31-.18.5l-1.13,2.75h-.4l-1.13-2.75c-.08-.2-.18-.5-.18-.5h-.01v3.25h-.47v-3.95Z"/>
    </g>
  </g>
</svg>