<?xml version="1.0" encoding="utf-8"?>
<!-- Generator: Adobe Illustrator 19.1.0, SVG Export Plug-In . SVG Version: 6.00 Build 0)  -->
<svg version="1.1" id="Layer_1" xmlns="http://www.w3.org/2000/svg" xmlns:xlink="http://www.w3.org/1999/xlink" x="0px" y="0px"
	 width="218.3px" height="74.4px" viewBox="0 0 218.3 74.4" style="enable-background:new 0 0 218.3 74.4;" xml:space="preserve">
<style type="text/css">
	.st0{fill:#5D1F82;}
	.st1{fill:#FF9800;}
	.st2{fill-rule:evenodd;clip-rule:evenodd;}
</style>
<g>
	<g>
		<path class="st0" d="M6.7,73.6H0.5V29.5h11.2c9.4,0,15.2,4.2,15.2,12.7c0,7.4-6.4,14.2-16.4,14.2h-2v-4l2-0.1
			c6-0.3,9.7-3.5,9.7-10c0-4.9-2.7-8.4-9.3-8.4H6.7V73.6z"/>
		<path class="st0" d="M39.7,46c3-3.2,7.6-4.7,10.9-4.7c7.3,0,11.2,4,11.2,12v20.3h-5.7V54.5c0-5.9-2.5-9-7.7-9
			c-4.5,0-8.6,3.1-8.6,9.1v19H34V27.3h5.7V46z"/>
		<path class="st0" d="M69,57.5c0-10.2,7.6-16.1,15.6-16.1c8,0,15.7,5.9,15.7,16.1c0,9.8-6.3,16.9-15.7,16.9
			C75.3,74.4,69,67.2,69,57.5z M75.2,57.5c0,5.9,2,12.9,9.5,12.9c7.5,0,9.5-6.9,9.5-12.9c0-5.7-2.4-12.1-9.5-12.1
			C77.6,45.4,75.2,51.8,75.2,57.5z"/>
		<path class="st0" d="M111.4,58.2c-0.1,6.3,4.4,12.1,10.7,12.1c2.9,0,6.5-1.1,8.7-2.7l1.7,3.1c-3.3,2.3-7.2,3.7-10.6,3.7
			c-9.9,0-16.5-6.1-16.5-17.2c0-10.9,7.9-15.9,15.1-15.9c9.7,0,12.9,8.6,12.3,16.9H111.4z M127.6,54.4c0-4.9-2.1-9.1-7.1-9.1
			c-6.1,0-8.5,5-8.7,9.1H127.6z"/>
		<path class="st0" d="M145.5,46c3-3.2,7.6-4.7,10.9-4.7c7.3,0,11.2,4,11.2,12v20.3h-5.7V54.5c0-5.9-2.5-9-7.7-9
			c-4.5,0-8.6,3.1-8.6,9.1v19h-5.7V42.1h5.7V46z"/>
		<path class="st0" d="M182.7,42.1v31.5H177V42.1H182.7z"/>
		<path class="st0" d="M213.4,74.2l-10-13.9l-9.9,13.9l-4.5-2.6l11.7-14.8L190.8,44l5.5-2.5l8.1,11.5l8.4-11.5l4.4,2l-10.2,13.1
			l11.8,15.2L213.4,74.2z"/>
	</g>
	<path class="st1" d="M175,25.1c0,0-1.7-2.3-2.4-5.4c-0.4-2.2-0.2-4.8,1-7.3c2.2-4.3,2.6-4.9,6.9-11.8c0,0-1.7,13.5,2.3,16.7
		c3,2.4,1.9-9.7,1.9-9.7c11.5,17.9-5.5,28.5-5.5,28.5s-12.3-5.8-8.9-18.8C170.3,17.2,170.5,24.2,175,25.1z"/>
</g>
</svg>
