<svg id="Layer_1" xmlns="http://www.w3.org/2000/svg" viewBox="0 0 715.5 337.6"><style>.st0{fill:none;} .st1{fill:#19468D;} .st2{fill:#C61F3E;} .st3{fill:#231F20;}</style><path class="st0" d="M74.1 325.3h9.1l-4.5-13.9zM379.1 318.4c.3-.8.4-1.7.4-2.7 0-.9-.2-1.6-.5-2.3-.3-.7-.8-1.2-1.4-1.6-.6-.4-1.2-.6-1.9-.8-.7-.2-1.7-.2-2.8-.2H369V322h3.5c1.1 0 2.1-.1 3-.3.9-.2 1.7-.6 2.3-1.2.6-.7 1-1.3 1.3-2.1zM244.2 50c11 0 17.3-10.2 17.3-22.4 0-10.7-5.6-21.9-17.2-21.9-11.5 0-17.3 10.6-17.3 22.5 0 11.5 6.3 21.8 17.2 21.8zM117.3 312.6c-1-.6-2.2-1.1-3.4-1.4-1.2-.3-2.7-.4-4.4-.4h-3v22.8h3c1.7 0 3.3-.1 4.6-.4 1.3-.3 2.5-.8 3.6-1.5 1.4-.9 2.4-2.2 3.1-3.7.7-1.5 1-3.5 1-5.8s-.4-4.2-1.1-5.8c-.8-1.7-2-2.9-3.4-3.8zM475.4 318.4c.3-.8.4-1.7.4-2.7 0-.9-.2-1.6-.5-2.3-.3-.7-.8-1.2-1.4-1.6-.6-.4-1.2-.6-1.9-.8-.7-.2-1.7-.2-2.8-.2h-3.9V322h3.5c1.1 0 2.1-.1 3-.3.9-.2 1.7-.6 2.3-1.2.6-.7 1.1-1.3 1.3-2.1zM402 16.9c-1.2-3.5-2-6.7-2.8-9.8h-.2c-.8 3.2-1.7 6.5-2.7 9.8L391 32.4h16.2L402 16.9zM336.7 325.3h9.1l-4.6-13.9zM598.3 50c11 0 17.3-10.2 17.3-22.4 0-10.7-5.6-21.9-17.2-21.9-11.5 0-17.3 10.6-17.3 22.5 0 11.5 6.2 21.8 17.2 21.8zM634.6 313.2c-.8-1-1.7-1.8-2.8-2.3-1.1-.5-2.3-.8-3.7-.8-1.4 0-2.7.2-3.7.7-1.1.5-2 1.3-2.8 2.3-.8 1-1.4 2.3-1.8 3.8-.4 1.5-.6 3.2-.6 5.2 0 3.9.8 6.8 2.4 8.9 1.6 2.1 3.8 3.1 6.6 3.1 2.7 0 4.9-1 6.5-3.1 1.6-2.1 2.4-5 2.4-8.9 0-2-.2-3.7-.6-5.2-.5-1.4-1.1-2.7-1.9-3.7zM8.2 325.3h9.1l-4.5-13.9zM223.8 243.4l-20.7-41.5-21.3 41.5zM672 313.2c-.8-1-1.7-1.8-2.8-2.3-1.1-.5-2.3-.8-3.7-.8-1.4 0-2.7.2-3.7.7-1.1.5-2 1.3-2.8 2.3-.8 1-1.4 2.3-1.8 3.8-.4 1.5-.6 3.2-.6 5.2 0 3.9.8 6.8 2.4 8.9 1.6 2.1 3.8 3.1 6.6 3.1 2.7 0 4.9-1 6.5-3.1 1.6-2.1 2.4-5 2.4-8.9 0-2-.2-3.7-.6-5.2-.6-1.4-1.2-2.7-1.9-3.7z"/><circle class="st1" cx="22.7" cy="114.1" r="22.5"/><path class="st2" d="M75 106.5H63.8c4.2 33-22.2 49-39.8 49-17.7 0-24-6.5-24-6.5l.3 128.8H75V106.5z"/><path class="st1" d="M106.8 276.9h57.8l8.9-17.3H232l8.6 17.3h54L200.8 91.2l-94 185.7zm117-33.5h-42.1l21.3-41.5 20.8 41.5z"/><path class="st2" d="M398.3 217.7c-19.8 0-35.9-16.1-35.9-35.9 0-19.8 16.1-35.9 35.9-35.9 17 0 31.2 11.8 34.9 27.6h56.1c-5.2-46.8-44.9-83.2-93.2-83.2-51.8 0-93.8 42-93.8 93.7 0 51.8 42 93.8 93.8 93.8 49.5 0 90-38.4 93.5-87H433c-3.9 15.4-18 26.9-34.7 26.9z"/><path class="st1" d="M611.7 205.3c-10-8.7-37.7-24-41.7-60-3.1-28.3 8.7-44.4 14-50.1-34.3 14.3-58.5 48.2-58.5 87.7 0 40.1 24.8 74.4 60 88.3 11.6.8 25.4-2.7 34.2-16.3 11.3-17.6 2-40.9-8-49.6zM659.9 96.5c-26.8-4.6-55.5 12.8-52.5 42.1 4 40.3 48 33.3 56.3 77.3 5.8 30.9-6.3 49.2-14.1 57.5 38.3-12.3 66-48.1 66-90.5-.1-38.3-22.9-71.4-55.7-86.4z"/><path class="st3" d="M4.1.9h7v53.9h-7zM88.6 23.4c0 8.4.2 15 .8 22.2l-.2.1c-2.6-5.5-5.7-11.2-9.7-17.5L62.2.9h-7.6v53.9h6.6v-23c0-9-.2-15.4-.6-22.2l.2-.1c2.7 5.8 6.3 12 10.1 18L88 54.9h7V.9h-6.6v22.5zM145.3 31.8c0-9-.2-15.4-.6-22.2l.2-.1c2.7 5.8 6.3 12 10.1 18l17.1 27.4h7V.9h-6.6v22.6c0 8.4.2 15 .8 22.2l-.2.1c-2.6-5.5-5.7-11.2-9.7-17.5L146.3.9h-7.6v53.9h6.6v-23zM243.8 55.7c13.8 0 25-9.8 25-28.4 0-16-9.5-27.3-24.2-27.3-14.4 0-25 11.2-25 28.3 0 16.3 10 27.4 24.2 27.4zm.5-50c11.6 0 17.2 11.2 17.2 21.9 0 12.2-6.2 22.4-17.3 22.4-11 0-17.2-10.3-17.2-21.8 0-11.9 5.8-22.5 17.3-22.5zM328.9 54.8L348.2.9h-7.4l-9.1 26.6c-2.4 7-4.6 13.8-6.2 20.1h-.2c-1.4-6.3-3.4-12.9-5.8-20.2L311.1.8h-7.5l17.6 53.9h7.7zM389.6 37.8h19.1l5.8 17h7.4L403.5.9h-8.4l-18.3 53.9h7.2l5.6-17zm6.7-21c1-3.3 1.9-6.6 2.7-9.8h.2c.8 3.1 1.6 6.3 2.8 9.8l5.3 15.5H391l5.3-15.5zM465.3 54.8h7.1v-48h16.5V.9h-40v5.9h16.4zM526.3.9h7v53.9h-7zM597.9 55.7c13.8 0 25-9.8 25-28.4 0-16-9.5-27.3-24.2-27.3-14.4 0-25 11.2-25 28.3 0 16.3 10 27.4 24.2 27.4zm.5-50c11.6 0 17.2 11.2 17.2 21.9 0 12.2-6.2 22.4-17.3 22.4-11 0-17.2-10.3-17.2-21.8 0-11.9 5.8-22.5 17.3-22.5zM670 31.8c0-9-.2-15.4-.6-22.2l.2-.1c2.7 5.8 6.3 12 10.1 18l17.1 27.4h7V.9h-6.6v22.6c0 8.4.2 15 .8 22.2l-.2.1c-2.6-5.5-5.7-11.2-9.7-17.5L671 .9h-7.6v53.9h6.6v-23zM10.4 307.4L.5 337h4l2.7-8.3h11.3l2.7 8.3h4.2l-10-29.6h-5zm-2.2 17.9l4.5-13.9 4.6 13.9H8.2zM53.4 307.6c-.7-.2-1.5-.4-2.4-.6-.9-.1-1.8-.2-2.8-.2-2 0-3.8.3-5.4 1-1.6.7-3 1.7-4.2 3-1.2 1.4-2.1 3-2.8 4.8-.6 1.8-.9 4-.9 6.5s.3 4.7 1 6.6c.6 1.9 1.6 3.5 2.7 4.8 1.2 1.3 2.6 2.3 4.2 2.9 1.6.6 3.4 1 5.3 1 1.2 0 2.1-.1 2.9-.2.7-.1 1.5-.4 2.4-.6.8-.3 1.5-.5 2.1-.8l1.8-.9v-4.7H57c-.3.3-.7.7-1.3 1.1-.5.4-1.2.9-1.9 1.3-.8.4-1.6.8-2.6 1.1-1 .3-2 .4-3.2.4-1.2 0-2.4-.2-3.5-.7-1.1-.5-2.1-1.2-2.9-2.2-.8-1-1.5-2.2-2-3.7s-.7-3.2-.7-5.2c0-1.9.2-3.6.7-5.1.5-1.5 1.1-2.8 1.9-3.8.8-1 1.8-1.8 3-2.3 1.1-.5 2.3-.8 3.6-.8 1.2 0 2.2.1 3.1.4.9.3 1.7.6 2.5 1s1.4.9 2 1.3c.5.5 1 .8 1.3 1.2h.3v-4.7c-.6-.4-1.3-.7-2-1-.6-.4-1.2-.7-1.9-.9zM76.4 307.4l-10 29.6h4l2.7-8.3h11.3L87 337h4.2l-10-29.6h-4.8zm-2.3 17.9l4.5-13.9 4.6 13.9h-9.1zM119.8 309.7c-1.1-.7-2.5-1.3-4-1.7-1.6-.4-3.8-.6-6.5-.6h-6.7V337h6.8c2.4 0 4.4-.2 5.9-.5s3.1-.9 4.6-1.9c1.8-1.2 3.3-2.9 4.4-5.1 1.1-2.2 1.6-4.6 1.6-7.3 0-2.9-.5-5.4-1.6-7.5-1.1-2-2.6-3.7-4.5-5zm.9 18.2c-.7 1.5-1.7 2.8-3.1 3.7-1.1.8-2.3 1.3-3.6 1.5-1.3.3-2.8.4-4.6.4h-3v-22.8h3c1.8 0 3.3.1 4.4.4 1.2.3 2.3.7 3.4 1.4 1.5.9 2.6 2.2 3.4 3.8.8 1.6 1.1 3.6 1.1 5.8 0 2.3-.3 4.3-1 5.8zM138.6 337h18.5v-3.5h-14.5v-11h13.5V319h-13.5v-8.1h14.5v-3.5h-18.5zM182.8 323.9l-7.4-16.5H170V337h3.7v-25.5l7.6 17.3h2.4l7.7-17.3V337h4v-29.6h-5.5zM218.7 320.4l-7.6-13h-4.4l10 16.9V337h3.9v-13.1l10-16.5h-4.2zM280 307.6c-.7-.2-1.5-.4-2.4-.6-.9-.1-1.8-.2-2.8-.2-2 0-3.8.3-5.4 1-1.6.7-3 1.7-4.2 3-1.2 1.4-2.1 3-2.8 4.8-.6 1.8-.9 4-.9 6.5s.3 4.7 1 6.6c.6 1.9 1.6 3.5 2.7 4.8 1.2 1.3 2.6 2.3 4.2 2.9 1.6.6 3.4 1 5.3 1 1.2 0 2.1-.1 2.9-.2.7-.1 1.5-.4 2.4-.6.8-.3 1.5-.5 2.1-.8l1.8-.9v-4.7h-.3c-.3.3-.7.7-1.3 1.1-.5.4-1.2.9-1.9 1.3-.8.4-1.6.8-2.6 1.1-1 .3-2 .4-3.2.4-1.2 0-2.4-.2-3.5-.7-1.1-.5-2.1-1.2-2.9-2.2-.8-1-1.5-2.2-2-3.7s-.7-3.2-.7-5.2c0-1.9.2-3.6.7-5.1.5-1.5 1.1-2.8 1.9-3.8.8-1 1.8-1.8 3-2.3 1.1-.5 2.3-.8 3.6-.8 1.2 0 2.2.1 3.1.4.9.3 1.7.6 2.5 1s1.4.9 2 1.3c.5.5 1 .8 1.3 1.2h.3v-4.7c-.6-.4-1.3-.7-2-1-.6-.4-1.3-.7-1.9-.9zM313.7 319H300v-11.6h-3.9V337h3.9v-14.5h13.7V337h3.9v-29.6h-3.9zM338.9 307.4l-10 29.6h4l2.7-8.3h11.3l2.7 8.3h4.2l-10-29.6h-4.9zm-2.2 17.9l4.5-13.9 4.6 13.9h-9.1zM381.9 320.9c1.1-1.5 1.7-3.3 1.7-5.4 0-1.5-.3-2.8-.9-3.9-.6-1-1.4-1.9-2.5-2.6-1-.7-2.1-1.1-3.3-1.3-1.1-.2-2.6-.3-4.3-.3H365V337h3.9v-11.8h4.5l9.4 11.8h5.1l-10.5-12.9c1.9-.7 3.4-1.8 4.5-3.2zm-9.4 1H369v-11.2h3.9c1.1 0 2 .1 2.8.2.7.2 1.4.4 1.9.8.6.4 1.1 1 1.4 1.6.3.7.5 1.4.5 2.3 0 1-.1 1.9-.4 2.7-.3.8-.7 1.4-1.3 2-.6.6-1.4 1-2.3 1.2-.9.3-1.9.4-3 .4zM394.7 310.9h10V337h3.9v-26.1h9.9v-3.5h-23.8zM430.1 337h18.5v-3.5H434v-11h13.6V319H434v-8.1h14.6v-3.5h-18.5zM478.3 320.9c1.1-1.5 1.7-3.3 1.7-5.4 0-1.5-.3-2.8-.9-3.9-.6-1-1.4-1.9-2.5-2.6-1-.7-2.1-1.1-3.3-1.3-1.1-.2-2.6-.3-4.3-.3h-7.6V337h3.9v-11.8h4.5l9.4 11.8h5.1l-10.5-12.9c1.9-.7 3.4-1.8 4.5-3.2zm-9.5 1h-3.5v-11.2h3.9c1.1 0 2 .1 2.8.2.7.2 1.4.4 1.9.8.6.4 1.1 1 1.4 1.6.3.7.5 1.4.5 2.3 0 1-.1 1.9-.4 2.7-.3.8-.7 1.4-1.3 2-.6.6-1.4 1-2.3 1.2-.8.3-1.9.4-3 .4zM529.2 321.1c-.8-.2-1.8-.5-3-.8-1.2-.3-2.2-.5-3.1-.8-1.3-.3-2.2-.9-2.9-1.6-.7-.7-1-1.7-1-3 0-1.4.6-2.5 1.7-3.4 1.1-.9 2.6-1.3 4.4-1.3 1.6 0 3.2.3 4.6 1 1.5.6 2.7 1.4 3.6 2.3h.3v-4.7c-1.3-.6-2.6-1.1-4.1-1.4-1.5-.3-3-.5-4.7-.5-2.9 0-5.3.8-7.1 2.4-1.9 1.6-2.8 3.6-2.8 6 0 1.2.2 2.2.5 3 .3.9.8 1.6 1.4 2.3.6.7 1.3 1.2 2.1 1.6.8.4 1.7.7 2.7 1 1.1.3 2.1.5 2.8.7.8.2 1.6.4 2.5.7 1.3.4 2.2.9 2.8 1.6.6.7.9 1.7.9 2.9 0 1.5-.6 2.7-1.7 3.6-1.1.9-2.8 1.4-4.9 1.4-1.5 0-3.1-.3-4.7-1s-3.1-1.6-4.4-2.8h-.1v4.9c1.3.6 2.7 1.2 4.2 1.6 1.5.4 3.3.7 5.5.7 1.8 0 3.3-.2 4.5-.7 1.2-.5 2.3-1.1 3.2-2 .8-.8 1.5-1.7 2-2.9.5-1.1.7-2.3.7-3.4 0-1.8-.5-3.4-1.4-4.6-.9-1.3-2.4-2.2-4.5-2.8zM564.5 307.6c-.7-.2-1.5-.4-2.4-.6-.9-.1-1.8-.2-2.8-.2-2 0-3.8.3-5.4 1-1.6.7-3 1.7-4.2 3-1.2 1.4-2.1 3-2.8 4.8-.6 1.8-.9 4-.9 6.5s.3 4.7 1 6.6c.6 1.9 1.6 3.5 2.7 4.8 1.2 1.3 2.6 2.3 4.2 2.9 1.6.6 3.4 1 5.3 1 1.2 0 2.1-.1 2.9-.2.7-.1 1.5-.4 2.4-.6.8-.3 1.5-.5 2.1-.8l1.8-.9v-4.7h-.3c-.3.3-.7.7-1.3 1.1-.5.4-1.2.9-1.9 1.3-.8.4-1.6.8-2.6 1.1-1 .3-2 .4-3.2.4-1.2 0-2.4-.2-3.5-.7-1.1-.5-2.1-1.2-2.9-2.2-.8-1-1.5-2.2-2-3.7s-.7-3.2-.7-5.2c0-1.9.2-3.6.7-5.1.5-1.5 1.1-2.8 1.9-3.8.8-1 1.8-1.8 3-2.3 1.1-.5 2.3-.8 3.6-.8 1.2 0 2.2.1 3.1.4.9.3 1.7.6 2.5 1s1.4.9 2 1.3c.5.5 1 .8 1.3 1.2h.3v-4.7c-.6-.4-1.3-.7-2-1-.6-.4-1.3-.7-1.9-.9zM598.2 319h-13.6v-11.6h-3.9V337h3.9v-14.5h13.6V337h3.9v-29.6h-3.9zM637.6 310.8c-1.1-1.3-2.5-2.3-4.1-3-1.6-.7-3.4-1.1-5.4-1.1-2 0-3.8.3-5.4 1-1.6.7-3 1.7-4.1 3-1.1 1.4-2 3-2.6 4.8-.6 1.9-.9 4.1-.9 6.6 0 2.4.3 4.6.9 6.5.6 1.9 1.5 3.5 2.6 4.8 1.2 1.3 2.5 2.3 4.1 3 1.6.7 3.4 1 5.4 1 1.9 0 3.7-.3 5.3-1 1.6-.7 3-1.7 4.2-3 1.2-1.3 2-2.9 2.6-4.9.6-1.9.9-4.1.9-6.5 0-2.5-.3-4.7-.9-6.6-.6-1.7-1.5-3.3-2.6-4.6zm-3 20.3c-1.6 2.1-3.8 3.1-6.5 3.1s-4.9-1-6.6-3.1c-1.6-2.1-2.4-5-2.4-8.9 0-1.9.2-3.6.6-5.2.4-1.5 1-2.8 1.8-3.8s1.8-1.8 2.8-2.3c1.1-.5 2.3-.7 3.7-.7 1.4 0 2.6.3 3.7.8s2 1.3 2.8 2.3c.8 1 1.4 2.2 1.8 3.8.4 1.5.6 3.2.6 5.2.2 3.8-.7 6.7-2.3 8.8zM674.9 310.8c-1.1-1.3-2.5-2.3-4.1-3-1.6-.7-3.4-1.1-5.4-1.1-2 0-3.8.3-5.4 1-1.6.7-3 1.7-4.1 3-1.1 1.4-2 3-2.6 4.8-.6 1.9-.9 4.1-.9 6.6 0 2.4.3 4.6.9 6.5.6 1.9 1.5 3.5 2.6 4.8 1.2 1.3 2.5 2.3 4.1 3 1.6.7 3.4 1 5.4 1 1.9 0 3.7-.3 5.3-1 1.6-.7 3-1.7 4.2-3 1.2-1.3 2-2.9 2.6-4.9.6-1.9.9-4.1.9-6.5 0-2.5-.3-4.7-.9-6.6-.6-1.7-1.5-3.3-2.6-4.6zm-3 20.3c-1.6 2.1-3.8 3.1-6.5 3.1s-4.9-1-6.6-3.1c-1.6-2.1-2.4-5-2.4-8.9 0-1.9.2-3.6.6-5.2.4-1.5 1-2.8 1.8-3.8s1.8-1.8 2.8-2.3c1.1-.5 2.3-.7 3.7-.7 1.4 0 2.6.3 3.7.8s2 1.3 2.8 2.3c.8 1 1.4 2.2 1.8 3.8.4 1.5.6 3.2.6 5.2.2 3.8-.6 6.7-2.3 8.8zM695.3 307.4h-4V337h17.2v-3.5h-13.2z"/></svg>