<?xml version="1.0" encoding="UTF-8" standalone="no"?> <svg xmlns:dc="http://purl.org/dc/elements/1.1/" xmlns:cc="http://creativecommons.org/ns#" xmlns:rdf="http://www.w3.org/1999/02/22-rdf-syntax-ns#" xmlns:svg="http://www.w3.org/2000/svg" xmlns="http://www.w3.org/2000/svg" xmlns:sodipodi="http://sodipodi.sourceforge.net/DTD/sodipodi-0.dtd" xmlns:inkscape="http://www.inkscape.org/namespaces/inkscape" version="1.1" id="svg2" xml:space="preserve" width="530.46667" height="223.58667" viewBox="0 0 530.46667 223.58667" sodipodi:docname="NHCS_lgo_PMS288U.eps"><metadata id="metadata8"></metadata><defs id="defs6"></defs><g id="g10" inkscape:groupmode="layer" inkscape:label="ink_ext_XXXXXX" transform="matrix(1.3333333,0,0,-1.3333333,0,223.58667)"><g id="g12" transform="scale(0.1)"><path d="M 3515.97,933.77 V 674.641 L 3323,714.273 V 933.77 Z m -116.89,-80.375 h -42.56 v -55.946 h 42.56 z m 0,-81.383 h -42.56 v -55.028 h 42.56 z m 84.41,81.383 h -42.56 v -55.946 h 42.56 z m 0,-81.383 h -42.56 v -55.028 h 42.56 v 55.028" style="fill:#18468b;fill-opacity:1;fill-rule:nonzero;stroke:none" id="path14"></path><path d="m 1149.46,48.5703 c -1.99,-6.5586 -3.38,-9.5508 -4.97,-12.5312 -6.97,-12.7383 -20.31,-20.711 -34.43,-20.711 -25.87,0 -42.19,22.7032 -42.19,58.5235 0,34.2184 16.11,56.3084 40.8,56.3084 12.13,0 22.88,-4.98 31.24,-14.531 3.78,-4.379 6.36,-8.949 9.75,-18.3087 h 15.92 v 45.9607 h -15.92 v -22.672 c -6.17,10.129 -20.7,24.661 -43.38,24.661 -33.44,0 -56.72,-30.25 -56.72,-73.2192 0,-43.4024 24.48,-71.839862 61.49,-71.839862 17.31,0 32.24,7.371092 43.78,21.488262 6.17,7.5625 10.35,16.7227 12.53,26.8711 z m 38.01,80.7887 h 16.51 V 16.9297 h -16.71 V 2.98828 h 51.14 V 16.9297 h -16.91 v 51.7422 h 61.48 V 16.9297 h -16.51 V 2.98828 h 51.14 V 16.9297 H 1300.5 V 129.359 h 16.91 v 13.922 h -50.94 v -13.922 h 16.51 V 82.6016 h -61.48 v 46.7574 h 16.71 v 13.922 h -50.74 z m 236.4,-72.8395 h -46.17 l 22.69,72.0315 z m -75.81,-39.5898 h -12.74 V 2.98828 h 25.47 l 12.34,39.80082 h 55.32 l 12.73,-39.80082 h 26.07 V 16.9297 h -13.34 l -43.37,126.3513 h -20.3 z m 181.28,112.4293 c 17.31,0 27.46,-0.589 31.64,-1.8 9.75,-2.77 15.91,-11.93 15.91,-23.278 0,-14.3396 -11.53,-24.0701 -28.44,-24.0701 h -28.87 v 49.1481 z m -43.79,0 h 16.53 V 16.9297 h -17.32 V 2.98828 h 51.34 V 16.9297 h -16.52 v 49.5312 h 30.85 c 24.08,0 24.87,-16.8906 25.86,-47.1406 l 0.4,-16.33202 h 33.84 V 16.9297 h -17.11 l -0.8,16.5117 c -1.79,30.8594 -6.96,35.2305 -23.88,40.4102 5.57,2.1875 8.15,3.3593 10.54,4.957 9.76,5.9805 15.13,15.9219 15.13,27.6524 0,3.008 -0.4,36.82 -44.77,36.82 h -64.09 z M 1623.66,92.3398 H 1637 v 37.0192 h 27.86 V 16.9297 h -18.12 V 2.98828 h 54.33 V 16.9297 h -18.71 V 129.359 h 27.87 V 92.3398 h 13.32 v 50.9412 h -99.89 z m 119.99,37.0192 h 16.73 V 16.9297 h -16.92 V 2.98828 h 105.26 V 45.7813 H 1832.8 V 16.9297 h -55.12 v 51.7422 h 52.14 v 13.9297 h -52.14 v 46.7574 h 52.74 V 102.68 h 15.91 v 40.601 h -102.68 z m 172.53,0 c 17.31,0 27.46,-0.589 31.65,-1.8 9.74,-2.77 15.92,-11.93 15.92,-23.278 0,-14.3396 -11.56,-24.0701 -28.46,-24.0701 h -28.87 v 49.1481 z m -43.78,0 h 16.52 V 16.9297 H 1871.6 V 2.98828 h 51.35 V 16.9297 h -16.53 v 49.5312 h 30.85 c 24.09,0 24.88,-16.8906 25.87,-47.1406 l 0.41,-16.33202 h 33.83 V 16.9297 h -17.13 l -0.78,16.5117 c -1.8,30.8594 -6.97,35.2305 -23.89,40.4102 5.57,2.1875 8.17,3.3593 10.55,4.957 9.74,5.9805 15.12,15.9219 15.12,27.6524 0,3.008 -0.4,36.82 -44.77,36.82 H 1872.4 Z M 2082.73,45.5898 V 2.98828 h 14.94 V 24.6914 c 3.38,-4.7695 5.36,-7.1719 7.56,-9.3633 C 2114.57,5.58984 2127.71,0 2140.84,0 c 25.08,0 44.18,18.5195 44.18,43.1992 0,9.1406 -2.98,17.9102 -8.56,24.6524 -8.55,10.5703 -20.29,15.1601 -43.96,17.3281 -11.76,1.0117 -15.94,1.9922 -20.9,4.1992 -6.59,2.7695 -11.35,10.5195 -11.35,17.8911 0,13.75 11.74,23.468 28.46,23.468 10.35,0 19.29,-3.566 26.85,-10.738 3.99,-3.77 5.98,-6.949 9.96,-15.121 h 14.12 v 38.402 h -14.31 V 123.59 c -10.75,13.711 -22.31,21.879 -39.41,21.879 -24.27,0 -41.99,-16.508 -41.99,-39.008 0,-9.5508 3.18,-18.3008 8.57,-23.6719 7.15,-7.1602 11.13,-9.7383 17.5,-11.7383 6.77,-2.1797 9.16,-2.5703 24.67,-3.9805 8.76,-0.8008 15.92,-2.1914 19.7,-3.789 8.55,-3.7696 13.73,-11.9297 13.73,-21.2696 0,-15.7226 -13.12,-27.2812 -31.43,-27.2812 -11.15,0 -21.1,4.5898 -29.25,13.5312 -4.39,4.7891 -6.37,8.168 -9.55,17.3281 z m 228.26,2.9805 c -1.99,-6.5586 -3.39,-9.5508 -4.98,-12.5312 -6.97,-12.7383 -20.3,-20.711 -34.43,-20.711 -25.86,0 -42.18,22.7032 -42.18,58.5235 0,34.2184 16.1,56.3084 40.79,56.3084 12.13,0 22.89,-4.98 31.25,-14.531 3.78,-4.379 6.37,-8.949 9.75,-18.3087 h 15.91 v 45.9607 h -15.91 v -22.672 c -6.18,10.129 -20.71,24.661 -43.38,24.661 -33.44,0 -56.72,-30.25 -56.72,-73.2192 0,-43.4024 24.47,-71.839862 61.48,-71.839862 17.31,0 32.25,7.371092 43.78,21.488262 6.17,7.5625 10.35,16.7227 12.54,26.8711 z M 2349,129.359 h 16.5 V 16.9297 h -16.71 V 2.98828 h 51.14 V 16.9297 H 2383 v 51.7422 h 61.51 V 16.9297 h -16.53 V 2.98828 h 51.16 V 16.9297 h -17.11 V 129.359 h 16.91 v 13.922 h -50.96 v -13.922 h 16.53 V 82.6016 H 2383 v 46.7574 h 16.74 v 13.922 H 2349 Z m 170.33,-55.7106 c 0,54.9026 38.01,56.5116 41.58,56.5116 h 2.41 c 9.14,0 41.19,-4.789 41.19,-59.1092 0,-33.0195 -16.92,-55.9102 -41.6,-55.9102 -27.27,0 -43.58,21.6992 -43.58,58.5078 m 41.78,71.0426 c -36.02,0 -60.49,-30.859 -60.49,-69.0621 0,-45.7695 24.08,-75.019525 61.7,-75.019525 35.21,0 60.68,30.050825 60.68,71.050825 0,42.5778 -23.67,73.0308 -61.89,73.0308 m 107.07,-71.0426 c 0,54.9026 38.01,56.5116 41.58,56.5116 h 2.4 c 9.14,0 41.19,-4.789 41.19,-59.1092 0,-33.0195 -16.93,-55.9102 -41.6,-55.9102 -27.26,0 -43.57,21.6992 -43.57,58.5078 m 41.8,71.0426 c -36.04,0 -60.51,-30.859 -60.51,-69.0621 0,-45.7695 24.08,-75.019525 61.7,-75.019525 35.21,0 60.68,30.050825 60.68,71.050825 0,42.5778 -23.67,73.0308 -61.87,73.0308 m 83.35,-15.332 h 16.92 V 16.9297 h -17.11 V 2.98828 h 101.89 V 48.9609 h -15.91 V 16.9297 h -51.35 V 129.359 h 17.32 v 13.922 h -51.76 v -13.922" style="fill:#18468b;fill-opacity:1;fill-rule:nonzero;stroke:none" id="path16"></path><path d="m 691.773,477.211 h 15.977 v -118.75 l -83.215,150.43 h -67.222 v -31.68 h 15.425 V 346.332 h -15.695 v -31.684 h 66.117 v 31.684 h -15.152 v 115.449 l 81.558,-147.133 h 53.454 v 162.563 h 15.433 v 31.68 h -66.68 z M 813.281,406.66 c 4.68,18.18 17.074,28.949 33.063,28.949 17.351,0 28.652,-10.199 31.133,-28.949 z m 63.645,-43.519 c -5.789,-15.153 -15.434,-22.051 -30.031,-22.051 -6.883,0 -31.961,1.941 -35.543,40.242 h 106.359 c -0.559,14.879 -1.106,34.43 -14.609,55.098 -12.672,19 -33.34,30.031 -56.758,30.031 -41.328,0 -71.914,-33.063 -71.914,-77.711 0,-45.18 30.304,-77.398 71.64,-77.398 35.817,0 62.539,19.82 69.149,51.789 z m 71.086,119.57 h 39.676 v 34.73 H 948.012 Z M 937.27,433.398 h 14.046 v -90.097 h -14.601 v -28.653 h 63.094 v 28.653 H 987.41 v 118.75 h -50.14 z m 152.63,1.114 c 18.2,0 31.69,-17.364 31.69,-41.051 0,-24.832 -14.32,-42.441 -34.16,-42.441 -20.94,0 -32.52,14.878 -32.52,41.32 0,25.629 13.78,42.172 34.99,42.172 m 31.42,-115.192 c 0,-16.531 -13.78,-27.539 -35,-27.539 -17.35,0 -26.99,5.778 -31.96,19.27 h -35.54 c 4.41,-17.629 8.27,-24.531 17.64,-32.242 11.84,-10.18 28.65,-15.137 50.42,-15.137 44.36,0 70.81,20.937 70.81,56.207 v 113.519 h 13.5 v 28.653 h -49.87 V 446.07 c -16.53,13.789 -28.11,19.008 -42.16,19.008 -36.65,0 -61.99,-29.469 -61.99,-72.187 0,-41.871 24.79,-71.911 59.51,-71.911 26.18,0 38.85,14.879 44.64,21.77 z m 65.3,170.02 h 15.15 V 343.301 h -14.88 v -28.653 h 64.48 v 28.653 h -13.5 v 51.801 c 0,22.597 14.61,40.507 33.06,40.507 13.5,0 21.77,-7.988 21.77,-21.23 v -99.731 h 49.59 v 28.653 h -13.49 v 76.597 c 0,27.813 -17.92,46 -46.02,46 -21.76,0 -35.82,-12.398 -44.91,-20.367 v 72.449 h -51.25 z m 256.79,-53.461 c 20.67,0 33.34,-17.91 33.34,-47.129 0,-28.629 -12.94,-47.109 -33.34,-47.109 -23.14,0 -35.54,16.25 -35.54,46.289 0,30.308 12.96,47.949 35.54,47.949 m -84.59,53.461 h 14.06 V 343.301 h -15.43 v -28.653 h 49.86 v 15.981 c 16.82,-15.16 27.28,-19.578 45.47,-19.578 36.92,0 61.72,31.699 61.72,79.09 0,44.648 -26.73,76.32 -63.65,76.32 -15.7,0 -27.27,-5.781 -41.88,-20.66 v 72.179 h -50.15 z m 249.63,-22.879 c -42.43,0 -74.11,-33.332 -74.11,-77.711 0,-44.629 31.41,-77.699 74.11,-77.699 41.34,0 72.47,33.64 72.47,77.699 0,43.281 -32.23,77.711 -72.47,77.711 m -1.37,-31.672 c 20.66,0 35.54,-19.027 35.54,-45.469 0,-28.66 -13.77,-46.57 -35.54,-46.57 -20.94,0 -34.72,18.73 -34.72,46.57 0,26.989 14.06,45.469 34.72,45.469 m 140.79,27.262 h -50.15 v -28.653 h 14.05 v -90.097 h -14.32 v -28.653 h 68.06 v 28.653 h -17.64 v 57.308 c 0,16.789 16.26,30.582 35.54,30.582 6.06,0 11.31,-0.55 17.91,-1.929 v 34.449 c -7.15,1.367 -11.57,1.93 -16.53,1.93 -16.52,0 -27.27,-7.711 -36.92,-26.461 z m 64.48,27.289 h 15.15 V 343.301 h -14.88 v -28.653 h 64.47 v 28.653 h -13.5 v 51.801 c 0,22.597 14.6,40.507 33.08,40.507 13.49,0 21.75,-7.988 21.75,-21.23 v -99.731 h 49.6 v 28.653 h -13.5 v 76.597 c 0,27.813 -17.9,46 -46.02,46 -21.76,0 -35.81,-12.398 -44.91,-20.367 v 72.449 h -51.24 z m 246.86,-22.879 c -42.42,0 -74.12,-33.332 -74.12,-77.711 0,-44.629 31.43,-77.699 74.12,-77.699 41.34,0 72.47,33.64 72.47,77.699 0,43.281 -32.23,77.711 -72.47,77.711 m -1.36,-31.672 c 20.66,0 35.54,-19.027 35.54,-45.469 0,-28.66 -13.79,-46.57 -35.54,-46.57 -20.95,0 -34.73,18.73 -34.73,46.57 0,26.989 14.05,45.469 34.73,45.469 m 167.79,31.672 c -42.44,0 -74.12,-33.332 -74.12,-77.711 0,-44.629 31.4,-77.699 74.12,-77.699 41.33,0 72.46,33.64 72.46,77.699 0,43.281 -32.24,77.711 -72.46,77.711 m -1.38,-31.672 c 20.67,0 35.54,-19.027 35.54,-45.469 0,-28.66 -13.77,-46.57 -35.54,-46.57 -20.94,0 -34.71,18.73 -34.71,46.57 0,26.989 14.04,45.469 34.71,45.469 m 164.76,0.539 c 26.19,0 35.55,-22.047 35.55,-45.469 0,-19.839 -3.31,-30.578 -11.84,-39.121 -6.35,-6.347 -14.88,-9.648 -23.71,-9.648 -19.55,0 -33.33,19.851 -33.33,47.66 0,28.398 12.67,46.039 33.33,46.578 m 21.78,54.012 h 13.77 v -43.539 c -12.95,15.14 -25.34,20.66 -43.27,20.66 -36.36,0 -62.81,-32.789 -62.81,-77.961 0,-46.859 25.63,-77.449 64.75,-77.449 13.5,0 27.28,6.629 41.33,20.121 v -16.524 h 49.6 v 28.653 h -13.51 V 517.98 h -49.86 z m 156.23,-11.86 h 15.7 V 346.621 l -15.7,-0.289 v -31.684 h 70.8 v 31.684 h -15.43 v 52.617 h 70.27 v -52.617 h -15.16 v -31.684 h 69.99 v 31.684 h -15.16 V 477.48 h 15.16 v 31.411 h -70.28 V 477.48 h 15.45 v -46.289 h -70.27 v 46.289 h 15.15 v 31.411 h -70.52 z m 271.66,-11.019 c -42.43,0 -74.12,-33.332 -74.12,-77.711 0,-44.629 31.4,-77.699 74.12,-77.699 41.34,0 72.46,33.64 72.46,77.699 0,43.281 -32.23,77.711 -72.46,77.711 m -1.37,-31.672 c 20.66,0 35.53,-19.027 35.53,-45.469 0,-28.66 -13.77,-46.57 -35.53,-46.57 -20.94,0 -34.73,18.73 -34.73,46.57 0,26.989 14.07,45.469 34.73,45.469 m 90.92,-1.391 h 14.33 V 359 c 0,-30.578 15.98,-47.949 44.09,-47.949 21.75,0 34.43,10.469 47.65,21.488 v -17.891 h 48.77 v 28.653 h -13.5 v 118.75 h -50.42 v -28.653 h 14.33 v -53.726 c 0,-20.121 -15.98,-38.582 -33.61,-38.582 -14.34,0 -21.21,8.539 -21.21,25.629 v 95.332 h -50.43 z m 171.64,-66.41 v -52.34 h 28.4 v 18.731 c 6.6,-7.438 18.45,-21.207 45.45,-21.207 30.31,0 52.36,20.117 52.36,47.379 0,28.949 -20.12,45.738 -59.53,49.879 -29.2,2.761 -33.89,4.672 -33.89,14.05 0,9.918 9.65,16.27 24.81,16.27 15.97,0 28.1,-8.559 33.34,-23.441 h 28.65 v 45.742 h -28.65 v -15.16 c -12.95,13.23 -24.26,18.461 -40.24,18.461 -28.92,0 -50.7,-19.282 -50.7,-44.633 0,-13.219 5.8,-24.508 16.81,-32.789 8.81,-6.598 18.46,-9.649 42.45,-12.129 25.35,-2.75 32.22,-6.332 32.22,-17.34 0,-10.762 -11.01,-18.461 -26.99,-18.461 -8.28,0 -15.43,2.211 -21.48,6.621 -5.81,4.399 -10.77,11.27 -15.18,20.367 z m 180.76,39.672 c 4.69,18.18 17.09,28.949 33.07,28.949 17.34,0 28.65,-10.199 31.13,-28.949 z m 63.65,-43.519 c -5.8,-15.153 -15.43,-22.051 -30.04,-22.051 -6.87,0 -31.95,1.941 -35.54,40.242 h 106.36 c -0.54,14.879 -1.11,34.43 -14.61,55.098 -12.67,19 -33.34,30.031 -56.75,30.031 -41.33,0 -71.92,-33.063 -71.92,-77.711 0,-45.18 30.31,-77.398 71.64,-77.398 35.82,0 62.54,19.82 69.16,51.789 h -38.3" style="fill:#18468b;fill-opacity:1;fill-rule:nonzero;stroke:none" id="path18"></path><path d="m 1098.11,1410.12 h -12.7 L 876.602,1303.05 v -17.2 h 21.421 V 768.633 H 1051.52 V 871.969 H 1132 v -73.473 h 153.49 v 487.354 h 21.41 v 17.2 z m -94.89,-502.503 h -59.65 v 78.418 h 59.65 z m 0,112.693 h -59.65 v 78.44 h 59.65 z m 0,112.8 h -59.65 v 78.44 h 59.65 z m 118.36,-225.493 h -59.65 v 78.418 h 59.65 z m 0,112.693 h -59.65 v 78.44 h 59.65 z m 0,112.8 h -59.65 v 78.44 h 59.65 z m 118.37,-225.493 h -59.65 v 78.418 h 59.65 z m 0,112.693 h -59.65 v 78.44 h 59.65 z m 0,112.8 h -59.65 v 78.44 h 59.65 v -78.44" style="fill:#18468b;fill-opacity:1;fill-rule:nonzero;stroke:none" id="path20"></path><path d="m 613.539,1055.54 h 15.899 V 705.129 l 270.546,45.734 V 1074.78 H 613.539 Z m 179.805,-93.477 h 59.66 v -78.418 h -59.66 z m 0,-114.063 h 59.66 v -77.172 h -59.66 z M 674.988,962.063 h 59.653 v -78.418 h -59.653 z m 0,-114.063 h 59.653 V 770.828 H 674.988 V 848" style="fill:#18468b;fill-opacity:1;fill-rule:nonzero;stroke:none" id="path22"></path><path d="m 3192.87,1166.23 h -9.03 l -148.55,-79.34 v -12.76 h 15.23 V 767.617 l 275.67,-47.246 v 353.759 h 15.23 v 12.76 z m -67.5,-372.425 h -42.45 v 58.125 h 42.45 z m 0,83.515 h -42.45 v 58.141 h 42.45 z m 0,83.61 h -42.45 v 58.12 h 42.45 z m 84.21,-167.125 h -42.44 v 58.125 h 42.44 z m 0,83.515 h -42.44 v 58.141 h 42.44 z m 0,83.61 h -42.44 v 58.12 h 42.44 z m 84.2,-167.125 h -42.42 v 58.125 h 42.42 z m 0,83.515 h -42.42 v 58.141 h 42.42 z m 0,83.61 h -42.42 v 58.12 h 42.42 v -58.12" style="fill:#18468b;fill-opacity:1;fill-rule:nonzero;stroke:none" id="path24"></path><path d="m 2635.15,1300.65 h 18.69 V 819.453 l 318.01,-34.293 v 543.04 h -336.7 z m 211.35,-133.8 h 70.14 v -112.26 h -70.14 z m 0,-163.31 h 70.14 V 893.09 h -70.14 z m -139.12,163.31 h 70.12 v -112.26 h -70.12 z m 0,-163.31 h 70.12 V 893.09 h -70.12 v 110.45" style="fill:#18468b;fill-opacity:1;fill-rule:nonzero;stroke:none" id="path26"></path><path d="m 0,533.898 c 0,0 1806.24,796.882 3978.45,0 0,0 -1747.2,674.282 -3978.45,0" style="fill:#18468b;fill-opacity:1;fill-rule:nonzero;stroke:none" id="path28"></path><path d="m 1417.42,1404.18 545.5,272.7 549.32,-272.7 V 1349.9 H 1417.42 Z m 498.7,138.54 c -12.96,-12.93 -19.38,-28.87 -19.38,-47.15 0,-18.26 6.42,-33.83 19.38,-46.82 13.31,-13.3 28.91,-19.77 47.16,-19.77 18.65,0 33.89,6.47 47.18,19.77 12.89,12.99 19.38,28.56 19.38,46.82 0,18.28 -6.49,34.22 -19.38,47.15 -13.29,12.92 -28.53,19.42 -47.18,19.42 -18.25,0 -33.85,-6.5 -47.16,-19.42" style="fill:#18468b;fill-opacity:1;fill-rule:nonzero;stroke:none" id="path30"></path><path d="m 425.906,682.41 c -5.73,34.778 -6.011,49.5 -2.707,57.031 2.297,5.356 9.11,28.278 22.606,54.289 0.976,1.836 5.535,7.325 7.488,8.489 5.098,3.109 25.594,16.742 33.902,22.285 3.426,2.269 3.981,2.137 8.121,1.809 6.727,-0.571 14.813,-0.18 24.664,2.226 27.418,6.754 45.672,25.824 58.274,51.129 11.746,23.598 4.559,47.828 -12.102,65.566 -13.054,13.903 -12.808,20.758 -11.429,35.926 1.238,14.367 -8.489,24.43 -21.825,30.22 -11.488,5.03 -20.878,13.17 -24.699,20.57 -20.344,39.37 -47.972,23.74 -74.082,44.36 -44.445,35.21 -130.418,2.02 -166.504,-70.62 -12.558,-6.936 -20.449,-17.725 -19.769,-29.323 0.363,-6.578 -6.637,-11.539 -11.543,-13.871 -16.594,-7.992 -27.137,-20.344 -26.356,-33.613 0.137,-2.582 0.703,-5.067 1.66,-7.473 4.211,-10.566 -0.808,-15.555 -7.742,-24.226 -4.57,-5.696 -7.047,-12.207 -6.66,-19.039 0.863,-14.887 15.078,-26.891 34.574,-31.133 7.797,-1.762 12.203,-6.293 17.438,-13.582 4.973,-6.969 22.754,-18.508 39.308,-17.45 2.196,0.137 9.286,1.872 14.114,3.293 2.304,0.672 4.355,0.239 6.332,-1.453 28.859,-24.656 50.91,-67.019 53.676,-73.699 2.789,-6.832 6.918,-28.414 5.66,-66.555 -0.067,-2.507 -3.461,-13.945 -13.762,-21.015 l 6.215,0.347 c 21.777,6.481 44.625,13.082 68.219,19.731 -1.668,2.301 -2.844,4.391 -3.071,5.781 m 32,132.231 c 3.278,5.023 6.824,10.086 10.614,15.004 1.226,1.585 1.753,1.941 4.367,1.332 2.324,-0.45 4.812,-1.196 7.66,-1.977 2.535,-0.672 2.535,-0.809 0.516,-2.047 -5.516,-3.437 -19.516,-12.176 -21.653,-13.48 -2.652,-1.598 -2.23,0 -1.504,1.168 M 343.398,799.664 c -13.054,11.852 -24.769,21.762 -25.847,22.582 -1.11,0.883 -1.645,1.692 0.265,2.328 6.758,2.098 14.688,0.5 21.372,-1.937 3.199,-1.321 8.246,-3.082 15.3,-3.93 2,-0.238 2.035,-1.449 1.117,-3.363 -2.375,-4.817 -5.234,-10.328 -8.011,-15.008 -1.496,-2.391 -2.18,-2.543 -4.196,-0.672 m 43.942,-35.512 c -2.067,-3.394 -2.906,-5.027 -4.938,-2.945 -4.351,4.496 -8.433,8.637 -12.328,12.598 -4.066,4.394 -9.019,9.308 -14.207,14.226 -1.851,1.77 -1.976,3.938 -1.004,6.614 2.438,7.007 5.867,15.359 8.742,22.191 0.493,1.168 0.696,1.437 2.165,1.523 6.355,0.239 13.734,1.332 22.242,3.813 1.629,0.641 2.125,0 2.125,-2.305 -0.149,-19.304 0.691,-32.972 1.558,-43.699 0.844,-6.816 -2.324,-8.656 -4.355,-12.016 m 22.68,34.344 c -0.957,5.141 -3.118,17.551 -4.317,28.738 -0.215,1.664 0.039,3.039 1.942,4.145 9.203,5.262 18.328,11.883 27.242,19.949 4.261,5.621 2.375,-2.328 15.929,-11.402 1.696,-1.086 1.481,-1.942 0.122,-3.809 -9.485,-13.066 -27.047,-34.183 -31.602,-40.262 -4.363,-5.843 -7.332,-8.078 -9.316,2.641" style="fill:#18468b;fill-opacity:1;fill-rule:nonzero;stroke:none" id="path32"></path><path d="m 1496.25,1293.9 h -72.46 v -90.58 h 72.46 v 90.58" style="fill:#18468b;fill-opacity:1;fill-rule:nonzero;stroke:none" id="path34"></path><path d="m 1496.25,1167.09 h -72.46 v -90.57 h 72.46 v 90.57" style="fill:#18468b;fill-opacity:1;fill-rule:nonzero;stroke:none" id="path36"></path><path d="m 1496.25,1040.29 h -72.46 v -90.571 h 72.46 v 90.571" style="fill:#18468b;fill-opacity:1;fill-rule:nonzero;stroke:none" id="path38"></path><path d="m 1496.25,914.059 h -72.46 v -56.125 c 18.11,2.617 36.22,5.07 72.46,7.371 v 48.754" style="fill:#18468b;fill-opacity:1;fill-rule:nonzero;stroke:none" id="path40"></path><path d="m 2510.66,1293.9 h -72.44 v -90.58 h 72.44 v 90.58" style="fill:#18468b;fill-opacity:1;fill-rule:nonzero;stroke:none" id="path42"></path><path d="m 2510.66,1167.09 h -72.44 v -90.57 h 72.44 v 90.57" style="fill:#18468b;fill-opacity:1;fill-rule:nonzero;stroke:none" id="path44"></path><path d="m 2510.66,1040.29 h -72.44 v -90.571 h 72.44 v 90.571" style="fill:#18468b;fill-opacity:1;fill-rule:nonzero;stroke:none" id="path46"></path><path d="m 2510.66,914.059 h -72.44 v -45.391 c 36.23,-2.074 54.33,-4.426 72.44,-6.918 v 52.309" style="fill:#18468b;fill-opacity:1;fill-rule:nonzero;stroke:none" id="path48"></path><path d="m 443.777,664 c -7.312,4.469 -12.105,8.922 -14.8,12.641 -23.594,-6.661 -46.442,-13.262 -68.219,-19.731 l 71.437,4.07 c 3.903,1 7.629,2.02 11.582,3.02" style="fill:#18468b;fill-opacity:1;fill-rule:nonzero;stroke:none" id="path50"></path><path d="m 1731.74,883.375 c -36.23,-1.703 -70.88,-6.113 -109.68,-6.113 h 109.68 v 6.113" style="fill:#18468b;fill-opacity:1;fill-rule:nonzero;stroke:none" id="path52"></path><path d="m 1605.34,874.57 h 140 v 292.73 h -140 V 874.57" style="fill:#18468b;fill-opacity:1;fill-rule:nonzero;stroke:none" id="path54"></path><path d="m 1890.15,874.57 h 140 v 292.73 h -140 V 874.57" style="fill:#18468b;fill-opacity:1;fill-rule:nonzero;stroke:none" id="path56"></path><path d="M 2175.19,874.57 H 2315.2 V 1167.3 H 2175.19 V 874.57" style="fill:#18468b;fill-opacity:1;fill-rule:nonzero;stroke:none" id="path58"></path></g></g></svg> 