<svg xmlns="http://www.w3.org/2000/svg" viewBox="0 0 649.19 200"><rect x="50" y="90" width="23.33" height="23.33" fill="#0a2240"/><rect x="50" y="40" width="23.33" height="23.33" fill="#0a2240"/><polygon points="6.67 113.33 6.67 46.67 0 53.33 0 113.33 6.67 113.33" fill="#0a2240"/><path d="M109.43,0,120,10.57V66.1L109.43,76.67,120,87.24v55.52L102.76,160H20.37C44.07,183.91,80,200,80,200l80-80V0Z" fill="#0a2240"/><path d="M113.33,140V90L100,76.67l13.33-13.34v-50L100,0H53.32l-40,40v80H0c0,11.89,5.8,23.19,14.27,33.33H100ZM80,120H43.33V83.33H80Zm0-50H43.33V33.33H80Z" fill="#93d500"/><polygon points="43.91 0 0 0 0 33.33 10.57 33.33 43.91 0" fill="#93d500"/><path d="M211.41,14.88h20.23c11.23,0,17.07,4.61,17.07,13.4v.28c0,5.4-2.6,9.36-8.36,11,6.7,1.37,10.3,5.19,10.3,12.1V52c0,9.43-6.19,14.4-18.07,14.4H211.41Zm18.36,21.17c5.61,0,7.85-2,7.85-6.62v-.29c0-4.32-2.45-6.26-7.92-6.26h-6.92V36.05Zm1,22.25c5.76,0,8.35-2.59,8.35-7.27v-.29c0-4.75-2.59-7.2-8.93-7.2h-7.42V58.3Z" fill="#0a2240"/><path d="M256.59,41v-.58c0-15.33,11.23-26.21,26.49-26.21,15.48,0,26.5,10.44,26.5,25.92v.58c0,15.34-10.51,26.5-26.57,26.5S256.59,56,256.59,41Zm40.82-.15v-.57c0-10-5.33-16.85-14.33-16.85s-14.33,6.55-14.33,16.92v.58c0,10.51,6.05,17,14.48,17C291.94,57.87,297.41,51.17,297.41,40.8Z" fill="#0a2240"/><path d="M315.17,50.24h11.16c.51,4.61,2.45,8.42,10.08,8.42,5.12,0,8.5-2.81,8.5-6.84s-2.16-5.54-9.72-6.7C322,43.4,316.61,39.44,316.61,29.5c0-8.78,7.35-15.34,18.72-15.34,11.6,0,18.36,5.19,19.3,15.41H343.9c-.72-4.68-3.45-6.84-8.57-6.84s-7.7,2.38-7.7,5.83c0,3.68,1.65,5.4,9.58,6.56,12.45,1.58,18.86,5,18.86,15.62,0,9.15-7.49,16.42-19.66,16.42C322.3,67.16,315.82,60.54,315.17,50.24Z" fill="#0a2240"/><path d="M371.77,24h-13.9V14.88h39.54V24h-13.9V66.37H371.77Z" fill="#0a2240"/><path d="M398.42,41v-.58c0-15.33,11.23-26.21,26.49-26.21,15.49,0,26.5,10.44,26.5,25.92v.58c0,15.34-10.51,26.5-26.57,26.5S398.42,56,398.42,41Zm40.82-.15v-.57c0-10-5.32-16.85-14.33-16.85s-14.32,6.55-14.32,16.92v.58c0,10.51,6,17,14.47,17C433.77,57.87,439.24,51.17,439.24,40.8Z" fill="#0a2240"/><path d="M460.37,14.88H473.9L493.49,48.8V14.88h10.22V66.37H492.19L470.73,29.72V66.37H460.37Z" fill="#0a2240"/><path d="M209.06,113v-.58c0-15.62,10.94-26.28,25.56-26.28,12.39,0,21.6,6,22.83,18.72h-12c-.86-6.19-4.32-9.5-10.8-9.5-8.13,0-13.32,6.33-13.32,17v.58c0,10.65,4.9,16.85,13.39,16.85,6.41,0,10.88-3.24,11.81-9.87H258c-1.29,12.75-10.44,19.3-23.11,19.3C218.06,139.16,209.06,128.79,209.06,113Z" fill="#0a2240"/><path d="M263.61,113v-.58c0-15.33,11.23-26.21,26.5-26.21,15.48,0,26.5,10.44,26.5,25.92v.58c0,15.34-10.52,26.5-26.57,26.5S263.61,128,263.61,113Zm40.83-.15v-.57c0-10-5.33-16.85-14.33-16.85s-14.33,6.55-14.33,16.92v.58c0,10.51,6.05,17,14.47,17C299,129.87,304.44,123.17,304.44,112.8Z" fill="#0a2240"/><path d="M325.56,86.88h11.67v42.34h20.95v9.15H325.56Z" fill="#0a2240"/><path d="M365.27,86.88h11.67v42.34h20.95v9.15H365.27Z" fill="#0a2240"/><path d="M404.7,86.88h33.56V96h-22v12h17.57v8.5H416.29v12.81h23.12v9.08H404.7Z" fill="#0a2240"/><path d="M444.06,113v-.58c0-15.48,11-26.28,26.21-26.28,11.45,0,21.68,5.26,22.9,18H481.58c-1-6-5-8.78-11.16-8.78-8.93,0-14.19,6.69-14.19,17.21v.57c0,9.94,4.25,17.07,14.33,17.07,8.64,0,12.17-5,12.39-10.87h-11.6v-8.5h23.12v5.47c0,13.75-8.79,22.9-24.2,22.9C453.42,139.16,444.06,128.21,444.06,113Z" fill="#0a2240"/><path d="M504.23,86.88H516v51.49H504.23Z" fill="#0a2240"/><path d="M540.46,86.88h15.19l16.71,51.49H560.19l-3.53-11.45H538l-3.53,11.45H523.54Zm.07,31.76h13.61l-6.77-22.25Z" fill="#0a2240"/><path d="M582.78,96h-13.9V86.88h39.53V96H594.52v42.41H582.78Z" fill="#0a2240"/><path d="M614.49,86.88H648V96h-22v12h17.57v8.5H626.08v12.81h23.11v9.08h-34.7Z" fill="#0a2240"/></svg>