<svg xmlns="http://www.w3.org/2000/svg" viewBox="0 0 120.75 84.18"><defs><style>.cls-1,.cls-3{fill:#fff;}.cls-2,.cls-3{fill-rule:evenodd;}</style></defs><g id="Layer_2" data-name="Layer 2"><ellipse class="cls-1" cx="60.06" cy="41.77" rx="59.65" ry="41.31"/><path class="cls-2" d="M64.34,0c0,.07.13,0,.08.17.16-.3.48.2.75-.13.15-.06,0,.15.13.13a8.73,8.73,0,0,0,2,0c.14,0,.12.12.21.17,1.07.06,2,.15,3,.21l.33.16c1,0,2.08.38,3,.38.1,0,.14.09.21.12A21.4,21.4,0,0,1,77,1.71a11.51,11.51,0,0,0,2.41.54c1.93.47,4,1.15,6,1.63a24.73,24.73,0,0,0,2.79,1c0,.08.11,0,.08.16a30.79,30.79,0,0,1,5.47,2.21c1.22.28,1.94,1.06,3.08,1.42a25.43,25.43,0,0,1,2.63,1.58c.87.29,1.32,1,2.25,1.21.19.44.67.58,1.08.8.56.55,1.31.91,1.84,1.5a11.52,11.52,0,0,1,2.12,1.66.27.27,0,0,0,.21.05c.06.21.25.3.46.37,0,.31.39.33.46.63.21,0,.2.15.37.16a1,1,0,0,0,.59.54c.16.34.5.5.79.71.69,1,1.63,1.67,2.33,2.63,1.11,1,1.8,2.43,2.88,3.46.76,1.61,1.9,2.85,2.54,4.58a36.27,36.27,0,0,1,2.54,6.51c.2,1.64.62,3.13.71,4.71,0,.61,0,1.25,0,1.92.09.08.16.43,0,.5a14.62,14.62,0,0,1-.12,2,5.8,5.8,0,0,1-.21,2.12c0,.39-.09.63-.08,1-.31.5-.2,1.17-.34,1.75a6,6,0,0,0-.41,1.59c-.3.18-.2.78-.46,1,0,.36-.19.5-.17.87-.3.41-.33,1.09-.71,1.42,0,.17-.07.23,0,.42a4.44,4.44,0,0,0-.62,1.33c-.66,1.48-1.73,2.77-2.46,4.25h-.13a1.91,1.91,0,0,1-.62.8,1,1,0,0,1-.42.54,9.28,9.28,0,0,1-1.92,2.42c-.1.27-.37.38-.46.66-.58.38-.86,1.05-1.46,1.42-.77,1-1.86,1.72-2.71,2.67a1,1,0,0,0-.58.58c-1.92,1.27-3.53,2.87-5.63,4A24.62,24.62,0,0,1,97,75.37a2.68,2.68,0,0,1-1,.54A7.19,7.19,0,0,1,93.73,77c-.09,0-.1.12-.17.16a2.44,2.44,0,0,0-1.13.54,6.27,6.27,0,0,0-1.66.63l-.92.42c-.29.13-.71,0-.92.33-1.57.4-2.94,1.23-4.54,1.46a20.2,20.2,0,0,1-2.63.79,3,3,0,0,1-1.37.33,15.45,15.45,0,0,1-2.38.55,3.51,3.51,0,0,1-1.13.25,11,11,0,0,1-3,.5c-1.19.34-2.82.4-4,.66-1.32,0-2.23.21-3.41.21-1.88.39-4.09,0-6,.33-.28.06-.47-.09-.7-.12-.64-.08-1.4,0-2,0-1.2-.06-2.44.06-3.66-.09-.35,0-.8-.23-1.17-.08-.42-.22-1.37-.07-2-.29-.09,0-.06.08-.13.08-2.24-.44-5.25-.66-7.46-1.29-.17,0-.24,0-.37,0s-.17-.08-.21-.16c-2.31-.38-4.07-1-6.09-1.51a49,49,0,0,1-5.54-2c-.33-.1-.78-.08-1-.33-.85-.18-1.35-.71-2.21-.88-.17-.27-.48-.23-.75-.33a9.87,9.87,0,0,0-1.71-.79c-.28-.33-.84-.38-1.13-.71-.58-.09-.75-.58-1.37-.63-.07-.27-.49-.21-.59-.45-.16,0-.2-.1-.37-.09-1.29-.83-2.54-1.71-3.92-2.46-.69-.61-1.52-1.09-2.17-1.75-.09,0-.12-.07-.25,0A11.29,11.29,0,0,0,14,68.78c-.18-.49-.76-.57-1-1-.05-.06-.2,0-.25-.08A1.26,1.26,0,0,0,12.1,67a.79.79,0,0,0-.58-.54c-.52-.74-1.28-1.22-1.75-2-.62-.4-.91-1.12-1.54-1.5-.69-1.13-1.6-2-2.3-3.13a.17.17,0,0,0-.16-.08c-.75-1.37-1.58-2.65-2.38-4,0-.27-.15-.32-.12-.59-.21-.18-.23-.54-.46-.7-.06-.31-.11-.62-.34-.75-.6-1.41-1-3.06-1.58-4.46-.08-1-.36-1.7-.42-2.67-.24-.33-.14-1-.33-1.38A30.61,30.61,0,0,1,.76,35.18C1,33.51,1.67,32.36,2,30.81a2.08,2.08,0,0,0,.21-.21c0-.18.11-.23.09-.42.46-.46.54-1.31,1-1.83a10.13,10.13,0,0,1,1-1.92c.47-.77,1-1.53,1.38-2.34.25-.22.39-.55.67-.75,0-.2.17-.24.16-.45a40,40,0,0,1,4-4.51c0-.22.26-.27.3-.5A4.53,4.53,0,0,0,12,16.63c1.06-.66,1.75-1.7,2.83-2.33.53-.49,1.13-.9,1.71-1.34.27-.4.84-.49,1.09-.91.87-.3,1.35-1,2.21-1.3.07,0,.07-.14.12-.2a27.21,27.21,0,0,1,3.17-1.67,5,5,0,0,1,1.58-.83,1.84,1.84,0,0,1,1-.55c.12,0,.11-.11.17-.16,1.45-.46,2.62-1.19,4-1.67.1,0,.1-.13.17-.17a4.44,4.44,0,0,0,1.63-.58A11.75,11.75,0,0,0,34,4.09c.63-.07,1-.38,1.66-.42a.8.8,0,0,0,.13-.13,13.47,13.47,0,0,0,2.63-.75c.09,0,.05.08.12.09.11-.19.33-.14.63-.21a5.1,5.1,0,0,1,1.54-.34A7.05,7.05,0,0,1,42.53,2c.09,0-.06-.11.09-.13a17.3,17.3,0,0,1,1.87-.33c.25-.27,1,0,1.21-.33.14,0,0,.13.17.08,1-.18,2-.34,3-.46.11,0,.11-.11.17-.16s0,.14.12.12C50.73.47,52.27.46,53.79.29c1-.11,2.06-.11,3.08-.21.14,0,.26,0,.3.09.09-.13.35-.06.37-.17,1.65.2,3.14-.17,4.8.17C63-.09,63.8.47,64.34,0Zm-6,1.21a2.87,2.87,0,0,0-1.62,0,1.33,1.33,0,0,1-.92-.08c-.14.17-.67.12-.87,0-.66.37-1.6,0-2.25.33,0-.07-.05-.1-.13-.08a21.85,21.85,0,0,1-3.21.29s-.08.11-.17.12c-1.14.12-2.23.33-3.29.5a3.7,3.7,0,0,0-1.33.25c0-.12-.1-.07-.17-.08-.74.35-1.82.35-2.58.67-.51,0-.75.23-1.3.16-1.7.53-2.93.9-4.75,1.3-1,.5-2.33.72-3.29,1.29a.23.23,0,0,0-.21,0A26.8,26.8,0,0,0,29.65,7L29.24,7c-.1,0-.1.13-.17.17-1,.31-1.84.85-2.88,1.17a.21.21,0,0,1-.08.21c-.19,0-.25.05-.42,0a7.6,7.6,0,0,1-1.91,1c-.7.64-1.82.85-2.51,1.5-.87.45-1.56,1.08-2.46,1.5s-1.41,1.14-2.25,1.58a1.06,1.06,0,0,1-.71.55c-.55.72-1.52,1-2,1.83a8.4,8.4,0,0,0-1.46,1.33c-1.38,1-2.22,2.51-3.54,3.55-.6,1.09-1.52,1.87-2.08,3a2.44,2.44,0,0,0-.84,1.29,21.47,21.47,0,0,0-1.71,2.83A18.62,18.62,0,0,1,3,31.14a8.44,8.44,0,0,1-.55,1.63,21.32,21.32,0,0,1-.71,2.37,16.32,16.32,0,0,1-.54,2.75c0,.07.11,0,.09.13A6.79,6.79,0,0,0,1.1,39.6c-.08,1.85,0,3.87.12,5.84.49,1.82.66,4,1.42,5.5.25,1.53,1,2.51,1.46,3.88a.73.73,0,0,1,.29.58c.06.1.18.13.21.25.57,1.27,1.4,2.27,2,3.5a8.91,8.91,0,0,1,1.33,1.71c.05.06.16.07.21.13a20.82,20.82,0,0,0,3,3.5.92.92,0,0,1,.08.25,8.41,8.41,0,0,1,1.54,1.5c.62.33,1,.92,1.54,1.29,0,.18.24.12.21.34,1,.6,1.78,1.47,2.84,2,.59.75,1.6,1.09,2.29,1.75.41,0,.54.38.92.46,0,.13.11.11.12.21a10.7,10.7,0,0,1,1.67,1c1.8.79,3.26,1.93,5.21,2.58a2.08,2.08,0,0,0,.21.21,7.28,7.28,0,0,1,2.12,1c3.19,1,6.11,2.35,9.55,3.13.24.28.63.18,1,.25.13,0,.23.12.38.16a21.45,21.45,0,0,0,2.41.46,9.22,9.22,0,0,0,2.67.54c1.64.4,3.54.59,5.42.88a29.29,29.29,0,0,1,3.08.29c2,.11,4.18,0,5.92.25A6.76,6.76,0,0,1,61.92,83c1.44,0,3,0,4.46-.13.06,0,0-.11.12-.08,1.23-.06,2-.21,3.13-.21,2.74-.43,5.36-.77,8.09-1.33.75-.35,1.86-.34,2.62-.67a81.19,81.19,0,0,0,9.13-2.84c.07,0,.09-.14.17-.16.56,0,.77-.37,1.29-.42,2.12-1.06,4.42-1.94,6.38-3.17.5-.17.85-.48,1.33-.67.07,0,0-.11.09-.12a1.34,1.34,0,0,0,.75-.5c2.69-1.38,4.82-3.32,7.17-5,.39-.63,1.08-1,1.5-1.55.6-.27.81-.93,1.42-1.21.09-.38.4-.53.62-.75s.45-.65.79-.83a3.68,3.68,0,0,1,.88-1,2.27,2.27,0,0,1,.71-.88c.33-.69.93-1.12,1.25-1.83a.75.75,0,0,0,.25-.13c.71-1.35,1.56-2.58,2.29-3.91.24-.91.78-1.5,1-2.42.06,0,.08-.11.17-.13.45-1.83,1.35-3.45,1.46-5.5a13.68,13.68,0,0,0,.54-4.17c0-.16.12-.31.12-.46s-.17-.54-.08-.66a.68.68,0,0,0,0-.75c0-1.22-.11-2.42-.21-3.59-.07,0-.09-.13-.12-.21a25.12,25.12,0,0,0-2.71-8.42,11,11,0,0,0-1.5-2.75,20,20,0,0,0-2.8-4A49.57,49.57,0,0,0,108,17.76c-.2,0-.2-.16-.37-.17A1.37,1.37,0,0,0,107,17c0-.2-.21-.21-.25-.38-.12,0-.18-.1-.29-.12-.3-.55-.94-.76-1.29-1.25-1-.43-1.59-1.33-2.59-1.8-.09-.29-.39-.38-.66-.5a5.46,5.46,0,0,0-1.67-1,1.44,1.44,0,0,0-.79-.5,6,6,0,0,0-2-1.12c-.65-.59-1.7-.78-2.34-1.38a.71.71,0,0,1-.54-.25c-.1,0-.09.08-.21,0a1.41,1.41,0,0,0-.29-.25c-1.42-.66-2.95-1.22-4.34-1.91-.73-.11-1.2-.49-2-.59-.51-.35-1.32-.4-1.84-.75-.61-.06-.91-.44-1.62-.41-.1,0,0-.2-.17-.17-1.64-.43-3.24-.9-4.88-1.34,0,0,0,.08-.08.09a4.08,4.08,0,0,0-.92-.29c-.13,0-.27,0-.37,0S77.83,3,77.76,3s-.49,0-.71,0-.24-.13-.37-.17c-.91-.27-1.9-.23-2.76-.54A9,9,0,0,1,72.05,2c-.16.12-.1,0-.21.08-.46-.19-1.26-.2-1.71-.33-1-.29-2.27,0-3-.29-.14,0,0,.13-.17.08-.64-.38-1.9-.06-2.92-.25-.18,0-.35,0-.62,0a4.69,4.69,0,0,0-.92-.08c-.74,0-1.54-.11-2.08,0-.12,0,0,.19-.09.16-.13-.28-.85-.27-1,0C59.18,1,58.53,1.11,58.37,1.25Z"/><path class="cls-2" d="M66,2.46c.14,0,.09.11.17.12s.08-.11.21-.08c1.67.35,3.48.21,5.08.63a8.76,8.76,0,0,1,1.8.29,23.45,23.45,0,0,1,4.41.79c.15-.11.32.06.59.13.56.14,1.18.23,1.75.33a13.65,13.65,0,0,0,2,.58c.91.36,1.81.51,2.75.79.11,0,.08.09.13.13a8.89,8.89,0,0,1,1.67.58c.18.06.45,0,.54.21,2.39.57,4.19,1.72,6.42,2.46,0,.14.22.09.21.25,1.2.39,2,1.16,3.25,1.54.13,0,.16.17.25.25.71.25,1.13.82,1.91,1.09.52.55,1.4.74,1.88,1.33.73.23,1,.9,1.75,1.13a2.61,2.61,0,0,0,1,.79c1.28.93,2.3,2.12,3.63,3,.16.41.65.49.75,1,.62.27.79,1,1.42,1.25,0,.16.17.16.16.33A46.91,46.91,0,0,1,113,25.26c.65,1.42,1.7,2.42,2.21,4,.48.62.65,1.55,1.17,2.13a25.54,25.54,0,0,0,1.17,3.46c.21,1.41.49,2.76.75,4.13,0,1.11.24,2.28.12,3.33s0,2-.12,3a34.66,34.66,0,0,1-1.54,6.38.43.43,0,0,0-.21.21c0,1.17-.79,1.61-.92,2.67a3.09,3.09,0,0,0-.58,1.16c-.26.27-.37.7-.67.92-.38,1-1,1.63-1.46,2.54-.33.11-.33.56-.67.67a18.89,18.89,0,0,1-3.29,3.88c0,.11-.06.1,0,.21-.24,0-.23.32-.5.33-.69,1.18-2,1.73-2.79,2.83-.66.27-.91.93-1.59,1.17-.07.06-.1.18-.17.25s-.18.12-.33.13c-.93.8-2,1.5-3,2.25a2.53,2.53,0,0,1-.33.12c-1,.74-2.16,1.32-3.17,2-.39.14-.84.23-1,.55-.46,0-.64.33-1,.41a32.26,32.26,0,0,1-3,1.55c-.68.09-1.06.49-1.71.62-.1,0-.06.16-.16.17s-.29,0-.38.08c-.41.36-1.2.36-1.62.71-1.68.39-3.11,1.23-4.8,1.46-.86.48-2.13.56-3,1-.43,0-.76.13-1.17.17-.13,0-.06.13-.17.12-1.37.11-2.4.57-3.79.67a.47.47,0,0,0-.25.16,3.4,3.4,0,0,0-1.17.21,10.1,10.1,0,0,0-1.66.17c-.06,0-.14,0-.13.13,0-.09-.15-.1-.29-.09-2.12.51-4.45.39-6.59.71a4.86,4.86,0,0,1-.54,0c-.47,0-1.13.06-1.79.08s-1.42-.21-1.88.09c-.13.13-.07-.14-.25-.09s-.13,0-.29.09a38.69,38.69,0,0,0-4.5-.17,3,3,0,0,0-.92,0c-.15,0-.12-.13-.25-.13s-.23,0-.33.09a18.77,18.77,0,0,0-3.59-.3c-.26-.31-1.1,0-1.41-.33-2.41-.24-5-.83-7.47-1.29a71.68,71.68,0,0,1-14-5c-.05,0,0,.08-.09.08-1.09-.48-2-1.18-3.12-1.58-1.35-.81-2.68-1.63-4.05-2.42,0-.07-.1-.12-.12-.21a1.05,1.05,0,0,1-.42-.16c-.87-.69-1.83-1.29-2.62-2-.72-.24-1.05-.87-1.71-1.16-.2-.42-.67-.56-.88-1-.65-.3-.89-1-1.58-1.25-.4-.72-1.14-1.09-1.55-1.8a11.93,11.93,0,0,1-2.33-2.62,34.69,34.69,0,0,1-3.54-5.09A4.61,4.61,0,0,0,5,54.07a28.57,28.57,0,0,1-1.5-4.21c-.36-.51-.35-1.4-.62-2a24.31,24.31,0,0,1-.46-3.46,27.72,27.72,0,0,1-.12-5.63s0-.14.12-.17a7.36,7.36,0,0,1,.38-2A23.57,23.57,0,0,1,3.93,32c.09-.25.27-.49.38-.75s0-.31.08-.41.17-.09.21-.17A5.73,5.73,0,0,1,5.39,29c0-.34.17-.42.17-.71.62-.67.93-1.65,1.54-2.33.11-.5.49-.73.63-1.21.55-.38.77-1.09,1.29-1.5a9.15,9.15,0,0,1,2.12-2.46c0-.15.16-.15.13-.33a2.4,2.4,0,0,0,1-1.09c.45-.12.54-.59,1-.75.07-.1.19-.17.21-.33.31,0,.33-.36.62-.42a29.61,29.61,0,0,1,4.38-3.54c.06-.05.06-.16.12-.21.25-.11.49-.21.59-.46a2.89,2.89,0,0,0,1.29-.83,3.68,3.68,0,0,0,1.33-.79c.12-.07.18,0,.3,0s.13-.15.16-.25c.19,0,.21-.19.42-.17.38-.45,1.18-.48,1.54-1,.68-.07.9-.6,1.59-.67a4.46,4.46,0,0,1,1.62-.79c.18-.13.31-.31.63-.29a3.42,3.42,0,0,1,1.29-.54A13.8,13.8,0,0,1,32.65,7c.1,0,.15-.1.21-.16a33.46,33.46,0,0,0,3.21-1A17.19,17.19,0,0,0,38,5.25c1-.12,1.89-.62,3-.71a23.62,23.62,0,0,1,4.09-.87,4.66,4.66,0,0,1,1.62-.25c1.33-.32,2.67-.36,3.92-.63.85-.12,1.84,0,2.54-.12.14,0,.31,0,.38-.17.07.21.47.07.58,0C57.91,2.33,62.22,2.32,66,2.46ZM61.67,4.38a7,7,0,0,0-2.75,0c-2.43-.22-4.51.19-7.09.25-.07,0-.07.15-.17.17-2-.09-3.94.57-6,.66a4.69,4.69,0,0,1-1.42.29c-1.48.49-3.31.61-4.71,1.17-.14,0-.26,0-.29-.08-.66.49-1.79.52-2.59.87-.86.11-1.37.57-2.25.67-.12,0-.07.18-.2.17A13.53,13.53,0,0,0,32,9.38c-.82.08-1.18.63-2,.71-.6.44-1.51.58-2.09,1-1,.23-1.5.89-2.46,1.13a1.36,1.36,0,0,1-.87.45,2.46,2.46,0,0,1-1.09.63c0,.23-.26.21-.41.29a5.64,5.64,0,0,1-1.3.79c0,.06,0,.16-.12.17a31,31,0,0,0-3,2c-.05.07-.06.17-.13.21a.32.32,0,0,0-.21,0c-.54.44-1.07.9-1.66,1.3-.29.48-.89.64-1.13,1.16-.3,0-.38.33-.58.5s-.34.15-.46.25,0,.17-.09.21c-.19.21-.54.23-.54.59-.93.61-1.45,1.63-2.33,2.29A13.11,13.11,0,0,1,9.85,25.3v.21c-.37.16-.38.67-.75.84,0,.25-.18.26-.17.5a24,24,0,0,0-1.45,2.29c-.09.34-.37.5-.38.92-.49.61-.66,1.53-1.12,2.16a3.75,3.75,0,0,1-.42,1.3c0,.08.05.08.08.12a2.46,2.46,0,0,0-.33.75c-.08.18-.09.43-.17.58a6.53,6.53,0,0,0-.29,1.34,15.3,15.3,0,0,0-.5,2.58s0,.16-.13.13c.22.16.11.59,0,.79.26.33-.17.84.09,1.17a6.45,6.45,0,0,0-.09,2.12,11.18,11.18,0,0,1,.17,2.17,3.17,3.17,0,0,0,.17.38c.23.87.25,1.9.46,2.75s.54,1.46.75,2.25c.1,0,.1.09.16.12.12,1.4,1,2.08,1.25,3.3.13,0,.12.1.17.16.53,1.27,1.4,2.19,2,3.42a.75.75,0,0,1,.33.5c.63.46.94,1.23,1.5,1.75,0,.15.16.16.13.34.49.29.69.89,1.21,1.16a26,26,0,0,0,4.13,3.92c.27.53.87.74,1.2,1.21.18,0,.23.16.42.17.48.59,1.27.86,1.75,1.46a56.73,56.73,0,0,0,5.25,3.12c.41.43,1.17.51,1.55,1,.62.09.91.51,1.46.67A9.66,9.66,0,0,0,28,71c.1-.32.48-.58.5-.83s-.46-.57-.5-1c0-.26.15-.4,0-.71a3.41,3.41,0,0,1,.17-.33,3.7,3.7,0,0,1-.46-.8c-.52-.06-.81-.36-1.29-.46-.08-.2-.31-.24-.51-.33-.18-.42-.55-.64-.75-1-.54,0-.56-.58-1.16-.54.05-.29-.25-.23-.38-.34-.12-.44-.57-.82-.83-1.25-.14-.21,0-.88-.09-1.25,0-.2-.17-.53,0-.79-.05-.16-.13-.28,0-.42-.27-1.51-.09-3.22-.25-4.87s-.18-3.16-.25-4.67c-.22-.19-.12-.52,0-.75s-.1-.21-.21-.25a1.21,1.21,0,0,0-.5-.09c-.11-.34-.67-.24-.58-.79a5.16,5.16,0,0,1-.67-2.33,14,14,0,0,0,.5-1.54c.66-.25.35-1,.3-1.63.49-.61,1.24-.95,1.5-1.79.43,0,.47-.45.83-.55.08-.35.38-.48.63-.66.18-.37.4-.93.95-.67a2.11,2.11,0,0,1,.25,1.29,1.49,1.49,0,0,0,.55.92,7.55,7.55,0,0,0,1.08,1c.25,1.6-2.21,1.07-2.08,2.55A5.39,5.39,0,0,0,27.36,46c.29.14.44,0,.88.09,0-.2.25-.19.33-.34-.11-.65-.53-1.18-.21-1.92a1.09,1.09,0,0,1-.37-.37c-.67-.06-.89-.56-1.3-.88,0-.17-.06-.21,0-.37-.57-.28-.7-1-1-1.54,0-.16.19-.09.13-.3a.8.8,0,0,1,0-.75c-.19-.19,0-.73-.13-1a3.48,3.48,0,0,0,.42-1.08c.63-.87,1.2-1.8,2.5-2,.19-.25.7-.16.87-.42.48,0,1-.07,1.46-.08l.34.16a10.54,10.54,0,0,1,2.16.38,5.56,5.56,0,0,1,2.17,3.17,5.71,5.71,0,0,1-.5,3c-.56.54-.92,1.27-1.83,1.46,0,.22-.19.29-.29.42.14.7-.45,1.17-.05,1.62.33,0,.75.18,1.05,0a8.91,8.91,0,0,0,3-.08c1,.13,2-.35,2.46.25s0,1-.09,1.42a7.13,7.13,0,0,0,0,1.91c0,.16.14.27.17.42a24.83,24.83,0,0,1,0,2.59c0,.58,0,1.18,0,1.71a12,12,0,0,1,0,1.29c0,.15.1.39.12.62a5.28,5.28,0,0,1,0,1.42c.48,1.76.12,3.94.25,5.79,0,.1.12.05.13.13-.18,0,0,.38-.08.54A1.31,1.31,0,0,1,40,64.53a9.49,9.49,0,0,1-2.34,2.17c0,.25-.18.31-.29.46.23.66-.18,1.47.17,2,.14,1.1,0,2.14.08,3.17,0,.43.34.86.09,1.29,0,.11.15.15.16.29,0,1.16,0,2.18,0,3.21a15.87,15.87,0,0,1,2.21.54c.14,0,0-.13.17-.08a.28.28,0,0,0,.17.12,8.42,8.42,0,0,0,2,.38c-.35-.71,0-1.91-.25-2.59,0-1.47-.24-3.16-.17-4.41-.25-.51,0-1.17-.08-1.71a1.45,1.45,0,0,1,0-1.3c-.33-.94-.07-2.18-.38-3.16,0-.26-.05-.46.13-.63a.31.31,0,0,1-.13-.25c-.08-1.59-.14-3.37-.12-4.88-.06-.1-.22-.09-.21-.25.14-1.19-.3-2.9-.09-4.29a11.35,11.35,0,0,1-.25-3.42,1,1,0,0,1-.16-.29c.11-1.17-.26-2.43-.13-3.46a13.12,13.12,0,0,1-.17-2.21A6.22,6.22,0,0,1,41.91,45c0-.2.22-.2.25-.37s-.26-.24-.29-.46c-.66-.09-.77-.71-.84-1.38-.29-.24-.25-.57-.25-1.12-.29-.26-.19-.93-.37-1.3.11-.23.07-.32,0-.62a10.46,10.46,0,0,0,.25-2.21c.14-.15.16-.42.25-.63-.18-.17-.12-.51,0-.75a3,3,0,0,1-.3-1.33c-.61-.4-.09-1.52-.33-2.25-.24-.11-.39-.05-.71,0-.43.51-.83,1.06-1.25,1.58a4.25,4.25,0,0,0-1.08.83c-.15,0-.24.07-.38.09s-.35.58-.62.83c0,0-.21,0-.25.09-.29.2-.44.58-.67.62-.74.12-1-.82-1.13-1.58,0-.15.14-.2.09-.42-1-.62-2.69.32-3.71-.33,0-.17-.09-.25-.09-.42.48-.7,1.23-1.14,1.5-2,.52-.13.62-.66.88-1,.76-.36,1-1.27,1.33-2A1.84,1.84,0,0,0,35,27.64c.93-.54.22-2.19.62-3-.12-.94.74-1.57,1-2.34a7.83,7.83,0,0,0,1.71-.75,8.6,8.6,0,0,1,2.17-.21c.28-.23.59,0,.88-.08.13,0,.05.14.21.08a24.7,24.7,0,0,1,3.91-.2c.12-.31.53-.31.46-.8-.39,0-.53-.19-.75-.33-.05-.57-.51-.74-.66-1.21-.17,0-.21-.07-.38,0A3.72,3.72,0,0,0,43.08,18a2.07,2.07,0,0,0-.3-.5,5.25,5.25,0,0,0-.25-.55c-.22-.32-.63-.52-.7-1,0-.16,0-.33,0-.5a2,2,0,0,1-.21-.71c-.06-.46.17-.93.12-1.34a1.3,1.3,0,0,1,.09-.75c.09-.37.08-.61.33-.75-.13-.11.05-.27,0-.46.22-.27.51-.46.75-.71a1.06,1.06,0,0,1,1-.79,1.25,1.25,0,0,1,.92-.41,3.41,3.41,0,0,1,1.91-.67c.3-.36.78-.24,1.3-.25s.86-.24,1.29-.25a8.63,8.63,0,0,1,3,.83.32.32,0,0,0,0,.21c.55.25.77.81,1.25,1.13a4.11,4.11,0,0,0,.79,1.12c0,1.08.33,1.73.29,2.88-.08,0-.1.14-.16.21a5.86,5.86,0,0,1-.17,1.71c-.1,0-.12.07-.25,0-.2.87-.86,1.27-1.33,1.87.13.8,0,1.92,0,2.42.17.07.38.13.42-.08,0,.13.42.12.41,0,0,.06,0,.14.09.12,1.08-.34,2.64,0,4-.33a1.54,1.54,0,0,0,1.08,0c.24.23.59.29.83.5s.27.4.5.5.28.6.55.71c.67.26,1.16-.15,1-1,.3-.63,1.09-.77,1.58-1.21,0-.37-.34-.46-.29-.92-.3-.12-.32-.51-.29-1,.39-.51.19-1.28.41-1.91-.47-.61.06-1.55.34-2A7.77,7.77,0,0,1,63.46,13c.27-.15.17-.52.33-.75s.23-.1.34-.2a5.64,5.64,0,0,1,1.17-1.13c.36-.18.93-.15,1.37-.33.14-.06.22-.21.38-.21s.49.13.7.12.24-.11.34-.12a11,11,0,0,1,3.08,0c1.07.81,2.33,1.42,2.55,3.08a.8.8,0,0,0,.2.21c-.52.74.58,1,.67,1.63,0,.21-.1.37-.12.62A2,2,0,0,0,75,17.26c-.1.21.18.55.21.83s-.08.62,0,.88.28.33.37.58,0,.48.17.67a3.57,3.57,0,0,0,0,1.42c.37.25,1,.1,1.58,0,1.21-.22,3.17-.22,3.75.62,0,.41.35.52.3,1,.39.22.22,1,.5,1.34,0,.16-.19.06-.13.24.09.54.12,1.49.21,2,0,.27,0,.53,0,.8,0,.08.11.13.12.2.12.51.07,1.34.21,1.84.08.27.29.43.09.71a1.74,1.74,0,0,1,.12,1c.35.71.12,2,.42,2.75.11.86-.13,1.75.33,2.25.15.65-.22,1.44.21,1.88a22.39,22.39,0,0,0,.17,2.54c0,.3.18.55.21.83,0,.62-.14,1.22.16,1.63,0,.31,0,.51,0,.79.1.07.1.24.21.29,0,1,.26,1.83.21,3,.26.48.16,1.18.33,1.67-.17.06-.1.36-.12.58.39.25.58.7,1.08.84,0,.25.26.24.25.5.67.23.87,1.37,1.8,1,0-.56.19-.83.2-1.34.25-.4.69-.61,1-1a51.12,51.12,0,0,1,6.55,0c.2,0,.41-.08.62-.08s.36.08.55.08c1.34,0,2.9-.32,4.12,0,.36.4.55,1,.92,1.37a8.79,8.79,0,0,1,.58,1.88c0,.13-.09.18-.08.33.33.44,0,1.29.25,1.75-.16.1,0,.48-.08.71s.16,0,.12.17v.46c0,.07-.11.11-.12.2a4.89,4.89,0,0,0,0,1.38c.11,1-.32,1.29-.75,1.92-.16,0-.18.15-.34.16-.1.65-.83.67-.87,1.38.17.18.11.61.37.71.32,1.39,1.13,2.29,1.42,3.71a5.71,5.71,0,0,1,.38.87c.54,0,.75-.59,1.25-.75.82-.75,1.61-1.52,2.5-2.21a1.15,1.15,0,0,1,.5-.5c.27-.58.87-.82,1.17-1.37a36.24,36.24,0,0,0,3.75-4.59c.2-.63.66-1,.87-1.62a31.64,31.64,0,0,0,1.88-3.67,1.1,1.1,0,0,1,.21-.63,21.24,21.24,0,0,1,.79-2.37c.28-1.46.58-2.9.79-4.42,0-.14-.13,0-.08-.17a21.84,21.84,0,0,0,.08-4.29c-.27-.49,0-1.53-.33-2,0-.69-.26-1-.21-1.75-.28-.53-.26-1.35-.63-1.79-.2-1-.65-1.82-.91-2.79-.07-.12-.22-.14-.25-.29a.37.37,0,0,1,0-.25c-.79-1.75-1.83-3.25-2.75-4.88a9.9,9.9,0,0,1-1.33-1.79c-.48-.22-.59-.81-1-1.09a1.44,1.44,0,0,0-.79-.83c0-.2-.26-.25-.3-.46a2.92,2.92,0,0,1-.91-1,2.07,2.07,0,0,1-.88-.83,2.2,2.2,0,0,1-1-.88c-.2,0-.19-.14-.41-.08,0-.22-.21-.19-.17-.42a2.65,2.65,0,0,1-1-.92c-1.47-.8-2.55-2-4.05-2.79a28.74,28.74,0,0,0-3.92-2.33,4.52,4.52,0,0,0-1.7-.84c-.42-.46-1.23-.52-1.63-1-.8-.06-1.14-.58-1.92-.67,0-.12-.15-.12-.21-.2-.82-.07-1.13-.65-2-.67-.12-.19-.54-.36-.71-.25a7.25,7.25,0,0,0-.79-.38,5.38,5.38,0,0,0-1.25-.33,16,16,0,0,0-3-1c-.93-.11-1.79-.63-2.88-.71a29.39,29.39,0,0,0-5-1c-.14-.21-.29,0-.33-.21A29.47,29.47,0,0,1,70.46,5c-.06,0,0,.11-.12.08-.52-.34-1.65-.09-2.29-.37-.15,0-.34,0-.38.08a6.14,6.14,0,0,0-1.83-.16c-.18,0-.28-.15-.46-.17s-.26.09-.34.08a22.27,22.27,0,0,0-3.2-.12c-.12,0,.11.16-.09.12S61.86,4.34,61.67,4.38ZM80.39,51.52a5,5,0,0,1,.54,2.17c.4.83.27,2,.54,2.92a4.6,4.6,0,0,1,.21.54c0,.4-.1.81.16,1.13.07.18-.12.13-.08.29.24.34.11.8.17,1.17.64,1.2.58,3.11,1.25,4.29a1.92,1.92,0,0,0,.29,1.08c0,.17-.14.09-.08.25a8.23,8.23,0,0,0,.71,1.88c0,.22.06.4.08.63a1.24,1.24,0,0,1,.37,1c-.58.77-1.72.14-2.71.2s-2.13,0-3,.09a1.55,1.55,0,0,0-1,0,11.67,11.67,0,0,1-.12,2.37.53.53,0,0,1,.08.38c-.31.88,0,2-.13,3a7.13,7.13,0,0,0,0,1.79A1.6,1.6,0,0,1,78,77a1.66,1.66,0,0,0,.12.58c0,.16-.29.1-.25.33.18,0,.13-.15.3-.12a11.33,11.33,0,0,0,2.33-.55c2.47-.69,4.85-1.44,7.34-2,1.19-.28,2.36-.75,3.58-1,.28-.28.78-.33,1.13-.54.06-.73-.57-1.1-.75-1.71,0-.22.15-.32.12-.58-.13-.69-1.23-.76-1.87-.46-.42-.2-1.22.17-1.71-.09-.18,0-.14.17-.34.13a.65.65,0,0,0-.54-.25,4.17,4.17,0,0,1-.29-.75,9.24,9.24,0,0,1,1.25-2.75c0-.25.16-.34,0-.55.35-.32.46-.9.75-1.29,0-.76.56-1,.63-1.75.33-.15.14-.83.5-1,.06-.59.54-.76.5-1.46-.29-.18-.16-.49-.17-.83a19.6,19.6,0,0,1,0-3c0-.17.16-.36.09-.54s-.11-.2-.17-.29-.29,0-.29-.13c0-.34-.23-.43-.33-.67-.73-.16-1,.44-1.59.55-.07,0-.08.16-.17.2a.84.84,0,0,0-.66.34c-.52,0-.69.34-1.3.25a19.25,19.25,0,0,1-1.66-1.46c0-.17-.11-.17-.09-.33-.39-.15-.57-.52-1-.67-.2-.51-.76-.69-.91-1.25a1.7,1.7,0,0,1-.79-.84c-.57-.3-.75-1-1.21-1.41h-.13C80.53,51.28,80.42,51.36,80.39,51.52Z"/><path class="cls-2" d="M100.44,45.69c.4.2.88.31,1.29.5a1.42,1.42,0,0,1,1.67.58c.08.81-.71.74-1.13,1-.71-.13-1.5.23-2.29.09a2,2,0,0,0-.29.12c-1.46-.82-2.7.8-4.34.17-.13,0,0,.13-.17.08-1-.23-2.09-.06-2.87-.33-.47-.16-1-.06-1.42-.17-.08,0-.2-.17-.42-.16a2.64,2.64,0,0,0-.71.25,2.72,2.72,0,0,1-.75.29c-.53.05-.88-.12-1.37.12-.39,0-.56-.22-.83-.5v-.5c.16-.27.67-.35,1-.58s.61-.78,1.12-.75a1.81,1.81,0,0,0,.08-2c-.05-.76-.12-1.75.42-2.13a1.87,1.87,0,0,1,1.13-1.54c0-.42.39-.55.79-.63a.74.74,0,0,0,.21-.25c.13,0,.14-.07.29,0,.36-.63,1.7-.3,2.29-.71.27.06.51-.1.84,0a4.15,4.15,0,0,1,2.46.5,1.83,1.83,0,0,1,.08.25c.14,0,.18.12.37.09a2.64,2.64,0,0,0,.84.79c.37.54.61,1.09,1,1.71a6.18,6.18,0,0,1,.29,2.25A12.86,12.86,0,0,0,100.44,45.69Z"/><path class="cls-3" d="M80.55,51.11h.13c.46.42.64,1.11,1.21,1.41a1.7,1.7,0,0,0,.79.84c.15.56.71.74.91,1.25.39.15.57.52,1,.67,0,.16.11.16.09.33a19.25,19.25,0,0,0,1.66,1.46c.61.09.78-.25,1.3-.25a.84.84,0,0,1,.66-.34c.09,0,.1-.15.17-.2.59-.11.86-.71,1.59-.55.1.24.34.33.33.67,0,.14.23,0,.29.13s.07.23.17.29-.06.37-.09.54a19.6,19.6,0,0,0,0,3c0,.34-.12.65.17.83,0,.7-.44.87-.5,1.46-.36.13-.17.81-.5,1-.07.72-.59,1-.63,1.75-.29.39-.4,1-.75,1.29.12.21-.07.3,0,.55a9.24,9.24,0,0,0-1.25,2.75,4.17,4.17,0,0,0,.29.75.65.65,0,0,1,.54.25c.2,0,.16-.15.34-.13.49.26,1.29-.11,1.71.09.64-.3,1.74-.23,1.87.46,0,.26-.11.36-.12.58.18.61.81,1,.75,1.71-.35.21-.85.26-1.13.54-1.22.29-2.39.76-3.58,1-2.49.6-4.87,1.35-7.34,2a11.33,11.33,0,0,1-2.33.55c-.17,0-.12.16-.3.12,0-.23.22-.17.25-.33A1.66,1.66,0,0,1,78,77a1.6,1.6,0,0,0-.42-.3,7.13,7.13,0,0,1,0-1.79c.11-1-.18-2.16.13-3a.53.53,0,0,0-.08-.38,11.67,11.67,0,0,0,.12-2.37,1.55,1.55,0,0,1,1,0c.91-.09,2.07,0,3-.09s2.13.57,2.71-.2a1.24,1.24,0,0,0-.37-1c0-.23-.07-.41-.08-.63a8.23,8.23,0,0,1-.71-1.88c-.06-.16.13-.08.08-.25A1.92,1.92,0,0,1,83.18,64c-.67-1.18-.61-3.09-1.25-4.29-.06-.37.07-.83-.17-1.17,0-.16.15-.11.08-.29-.26-.32-.12-.73-.16-1.13a4.6,4.6,0,0,0-.21-.54c-.27-.93-.14-2.09-.54-2.92a5,5,0,0,0-.54-2.17C80.42,51.36,80.53,51.28,80.55,51.11Z"/><path class="cls-3" d="M59.25,1.25c.19-.23.91-.24,1,0,.12,0,0-.19.09-.16.54-.07,1.34.06,2.08,0a4.69,4.69,0,0,1,.92.08c.27,0,.44,0,.62,0,1,.19,2.28-.13,2.92.25.14.05,0-.13.17-.08.77.29,2.08,0,3,.29.45.13,1.25.14,1.71.33.11-.12,0,0,.21-.08a9,9,0,0,0,1.87.29c.86.31,1.85.27,2.76.54.13,0,.24.14.37.17s.5,0,.71,0,.1.1.17.13.24,0,.37,0a4.08,4.08,0,0,1,.92.29s0-.08.08-.09c1.64.44,3.24.91,4.88,1.34.14,0,.07.15.17.17.71,0,1,.35,1.62.41.52.35,1.33.4,1.84.75.75.1,1.22.48,2,.59,1.39.69,2.92,1.25,4.34,1.91a1.41,1.41,0,0,1,.29.25c.12,0,.11-.05.21,0a.71.71,0,0,0,.54.25c.64.6,1.69.79,2.34,1.38a6,6,0,0,1,2,1.12,1.44,1.44,0,0,1,.79.5,5.46,5.46,0,0,1,1.67,1c.27.12.57.21.66.5,1,.47,1.55,1.37,2.59,1.8.35.49,1,.7,1.29,1.25.11,0,.17.1.29.12,0,.17.24.18.25.38a1.37,1.37,0,0,1,.63.58c.17,0,.17.19.37.17a49.57,49.57,0,0,1,4.25,4.67,20,20,0,0,1,2.8,4,11,11,0,0,1,1.5,2.75,25.12,25.12,0,0,1,2.71,8.42c0,.08.05.17.12.21.1,1.17.16,2.37.21,3.59a.68.68,0,0,1,0,.75c-.09.12.09.62.08.66s-.11.3-.12.46a13.68,13.68,0,0,1-.54,4.17c-.11,2.05-1,3.67-1.46,5.5-.09,0-.11.09-.17.13-.22.92-.76,1.51-1,2.42-.73,1.33-1.58,2.56-2.29,3.91a.75.75,0,0,1-.25.13c-.32.71-.92,1.14-1.25,1.83a2.27,2.27,0,0,0-.71.88,3.68,3.68,0,0,0-.88,1c-.34.18-.52.56-.79.83s-.53.37-.62.75c-.61.28-.82.94-1.42,1.21-.42.6-1.11.92-1.5,1.55-2.35,1.72-4.48,3.66-7.17,5a1.34,1.34,0,0,1-.75.5c-.06,0,0,.12-.09.12-.48.19-.83.5-1.33.67-2,1.23-4.26,2.11-6.38,3.17-.52,0-.73.41-1.29.42-.08,0-.1.12-.17.16a81.19,81.19,0,0,1-9.13,2.84c-.76.33-1.87.32-2.62.67-2.73.56-5.35.9-8.09,1.33-1.09,0-1.9.15-3.13.21-.09,0-.06.08-.12.08-1.44.1-3,.13-4.46.13a6.76,6.76,0,0,0-1.59.12c-1.74-.22-4-.14-5.92-.25a29.29,29.29,0,0,0-3.08-.29c-1.88-.29-3.78-.48-5.42-.88a9.22,9.22,0,0,1-2.67-.54,21.45,21.45,0,0,1-2.41-.46c-.15,0-.25-.14-.38-.16-.33-.07-.72,0-1-.25-3.44-.78-6.36-2.09-9.55-3.13a7.28,7.28,0,0,0-2.12-1,2.08,2.08,0,0,1-.21-.21c-1.95-.65-3.41-1.79-5.21-2.58a10.7,10.7,0,0,0-1.67-1c0-.1-.14-.08-.12-.21-.38-.08-.51-.41-.92-.46-.69-.66-1.7-1-2.29-1.75-1.06-.57-1.81-1.44-2.84-2,0-.22-.2-.16-.21-.34-.57-.37-.92-1-1.54-1.29a8.41,8.41,0,0,0-1.54-1.5.92.92,0,0,0-.08-.25,20.82,20.82,0,0,1-3-3.5c-.05-.06-.16-.07-.21-.13A8.91,8.91,0,0,0,6.6,59.15c-.6-1.23-1.43-2.23-2-3.5,0-.12-.15-.15-.21-.25a.73.73,0,0,0-.29-.58c-.41-1.37-1.21-2.35-1.46-3.88-.76-1.54-.93-3.68-1.42-5.5-.11-2-.2-4-.12-5.84A6.79,6.79,0,0,1,1.31,38c0-.09-.08-.06-.09-.13a16.32,16.32,0,0,0,.54-2.75,21.32,21.32,0,0,0,.71-2.37A8.44,8.44,0,0,0,3,31.14a18.62,18.62,0,0,0,1.2-2.59,21.47,21.47,0,0,1,1.71-2.83,2.44,2.44,0,0,1,.84-1.29c.56-1.13,1.48-1.91,2.08-3,1.32-1,2.16-2.57,3.54-3.55a8.4,8.4,0,0,1,1.46-1.33c.48-.8,1.45-1.11,2-1.83a1.06,1.06,0,0,0,.71-.55c.84-.44,1.47-1.08,2.25-1.58s1.59-1.05,2.46-1.5c.69-.65,1.81-.86,2.51-1.5a7.6,7.6,0,0,0,1.91-1c.17,0,.23-.08.42,0a.21.21,0,0,0,.08-.21c1-.32,1.84-.86,2.88-1.17.07,0,.07-.15.17-.17L29.65,7a26.8,26.8,0,0,1,2.63-1.08.23.23,0,0,1,.21,0c1-.57,2.26-.79,3.29-1.29,1.82-.4,3-.77,4.75-1.3.55.07.79-.18,1.3-.16.76-.32,1.84-.32,2.58-.67.07,0,.21,0,.17.08a3.7,3.7,0,0,1,1.33-.25C47,2.16,48.06,2,49.2,1.83c.09,0,.12-.08.17-.12a21.85,21.85,0,0,0,3.21-.29c.08,0,.13,0,.13.08.65-.3,1.59,0,2.25-.33.2.12.73.17.87,0a1.33,1.33,0,0,0,.92.08,2.87,2.87,0,0,1,1.62,0C58.53,1.11,59.18,1,59.25,1.25ZM54.12,2.46c-.11.11-.51.25-.58,0-.07.16-.24.15-.38.17-.7.09-1.69,0-2.54.12-1.25.27-2.59.31-3.92.63a4.66,4.66,0,0,0-1.62.25A23.62,23.62,0,0,0,41,4.54c-1.15.09-2.07.59-3,.71a17.19,17.19,0,0,1-1.88.54,33.46,33.46,0,0,1-3.21,1c-.06.06-.11.14-.21.16a13.8,13.8,0,0,0-3.33,1.34A3.42,3.42,0,0,0,28,8.88c-.32,0-.45.16-.63.29a4.46,4.46,0,0,0-1.62.79c-.69.07-.91.6-1.59.67-.36.48-1.16.51-1.54,1-.21,0-.23.16-.42.17,0,.1-.11.16-.16.25s-.18,0-.3,0a3.68,3.68,0,0,1-1.33.79,2.89,2.89,0,0,1-1.29.83c-.1.25-.34.35-.59.46-.06,0-.06.16-.12.21a29.61,29.61,0,0,0-4.38,3.54c-.29.06-.31.39-.62.42,0,.16-.14.23-.21.33-.42.16-.51.63-1,.75a2.4,2.4,0,0,1-1,1.09c0,.18-.12.18-.13.33A9.15,9.15,0,0,0,9,23.26c-.52.41-.74,1.12-1.29,1.5-.14.48-.52.71-.63,1.21-.61.68-.92,1.66-1.54,2.33,0,.29-.22.37-.17.71a5.73,5.73,0,0,0-.79,1.63c0,.08-.16.09-.21.17s0,.28-.08.41-.29.5-.38.75a23.57,23.57,0,0,0-1.16,4.59,7.36,7.36,0,0,0-.38,2c-.07,0-.07.13-.12.17a27.72,27.72,0,0,0,.12,5.63,24.31,24.31,0,0,0,.46,3.46c.27.6.26,1.49.62,2A28.57,28.57,0,0,0,5,54.07a4.61,4.61,0,0,1,.8,1.58,34.69,34.69,0,0,0,3.54,5.09,11.93,11.93,0,0,0,2.33,2.62c.41.71,1.15,1.08,1.55,1.8.69.25.93,1,1.58,1.25.21.4.68.54.88,1,.66.29,1,.92,1.71,1.16.79.76,1.75,1.36,2.62,2a1.05,1.05,0,0,0,.42.16c0,.09.09.14.12.21,1.37.79,2.7,1.61,4.05,2.42,1.17.4,2,1.1,3.12,1.58.06,0,0-.07.09-.08a71.68,71.68,0,0,0,14,5c2.52.46,5.06,1,7.47,1.29.31.28,1.15,0,1.41.33a18.77,18.77,0,0,1,3.59.3c.1,0,.15-.13.33-.09s.1.15.25.13a3,3,0,0,1,.92,0,38.69,38.69,0,0,1,4.5.17c.16-.11.12,0,.29-.09s.12.22.25.09c.46-.3,1.22-.06,1.88-.09s1.32-.08,1.79-.08a4.86,4.86,0,0,0,.54,0c2.14-.32,4.47-.2,6.59-.71.14,0,.26,0,.29.09,0-.14.07-.11.13-.13a10.1,10.1,0,0,1,1.66-.17,3.4,3.4,0,0,1,1.17-.21.47.47,0,0,1,.25-.16c1.39-.1,2.42-.56,3.79-.67.11,0,0-.16.17-.12.41,0,.74-.16,1.17-.17.91-.44,2.18-.52,3-1,1.69-.23,3.12-1.07,4.8-1.46.42-.35,1.21-.35,1.62-.71.09-.06.28,0,.38-.08s.06-.16.16-.17c.65-.13,1-.53,1.71-.62A32.26,32.26,0,0,0,95,74c.4-.08.58-.38,1-.41.2-.32.65-.41,1-.55,1-.72,2.16-1.3,3.17-2a2.53,2.53,0,0,0,.33-.12c1-.75,2-1.45,3-2.25.15,0,.15-.16.33-.13s.1-.19.17-.25c.68-.24.93-.9,1.59-1.17.77-1.1,2.1-1.65,2.79-2.83.27,0,.26-.3.5-.33,0-.11.07-.1,0-.21a18.89,18.89,0,0,0,3.29-3.88c.34-.11.34-.56.67-.67.42-.91,1.08-1.59,1.46-2.54.3-.22.41-.65.67-.92a3.09,3.09,0,0,1,.58-1.16c.13-1.06.9-1.5.92-2.67a.43.43,0,0,1,.21-.21,34.66,34.66,0,0,0,1.54-6.38c.15-1,0-2.05.12-3s-.17-2.22-.12-3.33c-.26-1.37-.54-2.72-.75-4.13a25.54,25.54,0,0,1-1.17-3.46c-.52-.58-.69-1.51-1.17-2.13-.51-1.54-1.56-2.54-2.21-4a46.91,46.91,0,0,0-3.25-3.92c0-.17-.16-.17-.16-.33-.63-.26-.8-1-1.42-1.25-.1-.47-.59-.55-.75-1-1.33-.88-2.35-2.07-3.63-3a2.61,2.61,0,0,1-1-.79c-.73-.23-1-.9-1.75-1.13-.48-.59-1.36-.78-1.88-1.33-.78-.27-1.2-.84-1.91-1.09-.09-.08-.12-.21-.25-.25-1.22-.38-2-1.15-3.25-1.54,0-.16-.2-.11-.21-.25-2.23-.74-4-1.89-6.42-2.46-.09-.25-.36-.15-.54-.21a8.89,8.89,0,0,0-1.67-.58s0-.15-.13-.13c-.94-.28-1.84-.43-2.75-.79a13.65,13.65,0,0,1-2-.58c-.57-.1-1.19-.19-1.75-.33-.27-.07-.44-.24-.59-.13a23.45,23.45,0,0,0-4.41-.79,8.76,8.76,0,0,0-1.8-.29c-1.6-.42-3.41-.28-5.08-.63-.13,0,0,.15-.21.08s0-.16-.17-.12C62.22,2.32,57.91,2.33,54.12,2.46Z"/><path class="cls-3" d="M61.75,4.5c.2,0,0-.14.09-.12A22.27,22.27,0,0,1,65,4.5c.08,0,.28-.09.34-.08s.28.16.46.17a6.14,6.14,0,0,1,1.83.16c0-.12.23-.08.38-.08.64.28,1.77,0,2.29.37.09,0,.06-.08.12-.08a29.47,29.47,0,0,0,3.55.5c0,.19.19,0,.33.21a29.39,29.39,0,0,1,5,1c1.09.08,2,.6,2.88.71a16,16,0,0,1,3,1,5.38,5.38,0,0,1,1.25.33,7.25,7.25,0,0,1,.79.38c.17-.11.59.06.71.25.87,0,1.18.6,2,.67.06.08.2.08.21.2.78.09,1.12.61,1.92.67.4.48,1.21.54,1.63,1a4.52,4.52,0,0,1,1.7.84,28.74,28.74,0,0,1,3.92,2.33c1.5.79,2.58,2,4.05,2.79a2.65,2.65,0,0,0,1,.92c0,.23.18.2.17.42.22-.06.21.12.41.08a2.2,2.2,0,0,0,1,.88,2.07,2.07,0,0,0,.88.83,2.92,2.92,0,0,0,.91,1c0,.21.25.26.3.46a1.44,1.44,0,0,1,.79.83c.41.28.52.87,1,1.09a9.9,9.9,0,0,0,1.33,1.79c.92,1.63,2,3.13,2.75,4.88a.37.37,0,0,0,0,.25c0,.15.18.17.25.29.26,1,.71,1.76.91,2.79.37.44.35,1.26.63,1.79,0,.7.25,1.06.21,1.75.33.52.06,1.56.33,2a21.84,21.84,0,0,1-.08,4.29c0,.14.13,0,.08.17-.21,1.52-.51,3-.79,4.42a21.24,21.24,0,0,0-.79,2.37,1.1,1.1,0,0,0-.21.63,31.64,31.64,0,0,1-1.88,3.67c-.21.62-.67,1-.87,1.62a36.24,36.24,0,0,1-3.75,4.59c-.3.55-.9.79-1.17,1.37a1.15,1.15,0,0,0-.5.5c-.89.69-1.68,1.46-2.5,2.21-.5.16-.71.78-1.25.75a5.71,5.71,0,0,0-.38-.87c-.29-1.42-1.1-2.32-1.42-3.71-.26-.1-.2-.53-.37-.71,0-.71.77-.73.87-1.38.16,0,.18-.15.34-.16.43-.63.86-.94.75-1.92a4.89,4.89,0,0,1,0-1.38c0-.09.09-.13.12-.2v-.46c0-.14-.11-.09-.12-.17s-.08-.61.08-.71c-.28-.46.08-1.31-.25-1.75,0-.15.08-.2.08-.33a8.79,8.79,0,0,0-.58-1.88c-.37-.39-.56-1-.92-1.37-1.22-.37-2.78,0-4.12,0-.19,0-.37-.08-.55-.08s-.42.09-.62.08a51.12,51.12,0,0,0-6.55,0c-.31.35-.75.56-1,1,0,.51-.24.78-.2,1.34-.93.41-1.13-.73-1.8-1,0-.26-.25-.25-.25-.5-.5-.14-.69-.59-1.08-.84,0-.22-.05-.52.12-.58-.17-.49-.07-1.19-.33-1.67,0-1.13-.24-2-.21-3-.11-.05-.11-.22-.21-.29,0-.28-.07-.48,0-.79-.3-.41-.12-1-.16-1.63,0-.28-.16-.53-.21-.83a22.39,22.39,0,0,1-.17-2.54c-.43-.44-.06-1.23-.21-1.88-.46-.5-.22-1.39-.33-2.25-.3-.76-.07-2-.42-2.75a1.74,1.74,0,0,0-.12-1c.2-.28,0-.44-.09-.71-.14-.5-.09-1.33-.21-1.84,0-.07-.11-.12-.12-.2,0-.27,0-.53,0-.8-.09-.47-.12-1.42-.21-2-.06-.18.16-.08.13-.24-.28-.34-.11-1.12-.5-1.34,0-.48-.28-.59-.3-1-.58-.84-2.54-.84-3.75-.62-.56.1-1.21.25-1.58,0a3.57,3.57,0,0,1,0-1.42c-.16-.19-.09-.46-.17-.67s-.31-.38-.37-.58,0-.51,0-.88-.31-.62-.21-.83a2,2,0,0,1-.54-1.34c0-.25.15-.41.12-.62-.09-.66-1.19-.89-.67-1.63a.8.8,0,0,1-.2-.21c-.22-1.66-1.48-2.27-2.55-3.08a11,11,0,0,0-3.08,0c-.1,0-.23.12-.34.12s-.48-.12-.7-.12-.24.15-.38.21c-.44.18-1,.15-1.37.33A5.64,5.64,0,0,0,64.13,12c-.11.1-.26.11-.34.2s-.06.6-.33.75a7.77,7.77,0,0,0-.08,1.21c-.28.5-.81,1.44-.34,2-.22.63,0,1.4-.41,1.91,0,.45,0,.84.29,1-.05.46.26.55.29.92-.49.44-1.28.58-1.58,1.21.16.81-.33,1.22-1,1-.27-.11-.42-.5-.55-.71s-.31-.34-.5-.5-.59-.27-.83-.5a1.54,1.54,0,0,1-1.08,0c-1.32.33-2.88,0-4,.33-.09,0-.08-.06-.09-.12,0,.16-.37.17-.41,0,0,.21-.25.15-.42.08-.09-.5.09-1.62,0-2.42.47-.6,1.13-1,1.33-1.87.13,0,.15,0,.25,0a5.86,5.86,0,0,0,.17-1.71c.06-.07.08-.17.16-.21,0-1.15-.26-1.8-.29-2.88a4.11,4.11,0,0,1-.79-1.12c-.48-.32-.7-.88-1.25-1.13a.32.32,0,0,1,0-.21,8.63,8.63,0,0,0-3-.83c-.43,0-.92.24-1.29.25s-1-.11-1.3.25a3.41,3.41,0,0,0-1.91.67,1.25,1.25,0,0,0-.92.41,1.06,1.06,0,0,0-1,.79c-.24.25-.53.44-.75.71.05.19-.13.35,0,.46-.25.14-.24.38-.33.75a1.3,1.3,0,0,0-.09.75c0,.41-.18.88-.12,1.34a2,2,0,0,0,.21.71c0,.17,0,.34,0,.5.07.43.48.63.7,1a5.25,5.25,0,0,1,.25.55,2.07,2.07,0,0,1,.3.5,3.72,3.72,0,0,1,1.08.79c.17,0,.21.06.38,0,.15.47.61.64.66,1.21.22.14.36.37.75.33.07.49-.34.49-.46.8a24.7,24.7,0,0,0-3.91.2c-.16.06-.08-.11-.21-.08-.29.12-.6-.15-.88.08a8.6,8.6,0,0,0-2.17.21,7.83,7.83,0,0,1-1.71.75c-.3.77-1.16,1.4-1,2.34-.4.81.31,2.46-.62,3a1.84,1.84,0,0,1-.84,1.08c-.36.77-.57,1.68-1.33,2-.26.39-.36.92-.88,1-.27.9-1,1.34-1.5,2,0,.17.09.25.09.42,1,.65,2.72-.29,3.71.33,0,.22-.07.27-.09.42.1.76.39,1.7,1.13,1.58.23,0,.38-.42.67-.62,0,0,.21,0,.25-.09.27-.25.4-.67.62-.83S37,35,37.16,35a4.25,4.25,0,0,1,1.08-.83c.42-.52.82-1.07,1.25-1.58.32,0,.47-.07.71,0,.24.73-.28,1.85.33,2.25a3,3,0,0,0,.3,1.33c-.08.24-.14.58,0,.75-.09.21-.11.48-.25.63a10.46,10.46,0,0,1-.25,2.21c.11.3.15.39,0,.62.18.37.08,1,.37,1.3,0,.55,0,.88.25,1.12.07.67.18,1.29.84,1.38,0,.22.18.31.29.46s-.24.17-.25.37a6.22,6.22,0,0,0-1.59.21,13.12,13.12,0,0,0,.17,2.21c-.13,1,.24,2.29.13,3.46a1,1,0,0,0,.16.29A11.35,11.35,0,0,0,41,54.61c-.21,1.39.23,3.1.09,4.29,0,.16.15.15.21.25,0,1.51,0,3.29.12,4.88a.31.31,0,0,0,.13.25c-.18.17-.08.37-.13.63.31,1,0,2.22.38,3.16a1.45,1.45,0,0,0,0,1.3c0,.54-.17,1.2.08,1.71-.07,1.25.14,2.94.17,4.41.2.68-.1,1.88.25,2.59a8.42,8.42,0,0,1-2-.38.28.28,0,0,1-.17-.12c-.13,0,0,.13-.17.08a15.87,15.87,0,0,0-2.21-.54c0-1,0-2.05,0-3.21,0-.14-.13-.18-.16-.29.25-.43-.06-.86-.09-1.29-.07-1,.06-2.07-.08-3.17-.35-.53.06-1.34-.17-2,.11-.15.29-.21.29-.46A9.49,9.49,0,0,0,40,64.53a1.31,1.31,0,0,0-.08-1.21c0-.16-.1-.51.08-.54,0-.08-.14,0-.13-.13-.13-1.85.23-4-.25-5.79a5.28,5.28,0,0,0,0-1.42c0-.23-.13-.47-.12-.62a12,12,0,0,0,0-1.29c0-.53,0-1.13,0-1.71a24.83,24.83,0,0,0,0-2.59c0-.15-.14-.26-.17-.42a7.13,7.13,0,0,1,0-1.91c.07-.47.42-.92.09-1.42s-1.51-.12-2.46-.25a8.91,8.91,0,0,1-3,.08c-.3.18-.72,0-1.05,0-.4-.45.19-.92.05-1.62.1-.13.27-.2.29-.42.91-.19,1.27-.92,1.83-1.46a5.71,5.71,0,0,0,.5-3A5.56,5.56,0,0,0,33.4,35.6a10.54,10.54,0,0,0-2.16-.38l-.34-.16c-.5,0-1,0-1.46.08-.17.26-.68.17-.87.42-1.3.2-1.87,1.13-2.5,2a3.48,3.48,0,0,1-.42,1.08c.11.27-.06.81.13,1a.8.8,0,0,0,0,.75c.06.21-.15.14-.13.3.3.54.43,1.26,1,1.54,0,.16.08.2,0,.37.41.32.63.82,1.3.88a1.09,1.09,0,0,0,.37.37c-.32.74.1,1.27.21,1.92-.08.15-.3.14-.33.34-.44-.07-.59,0-.88-.09a5.39,5.39,0,0,1-2.58.09c-.13-1.48,2.33-1,2.08-2.55a7.55,7.55,0,0,1-1.08-1,1.49,1.49,0,0,1-.55-.92A2.11,2.11,0,0,0,25,40.31c-.55-.26-.77.3-.95.67-.25.18-.55.31-.63.66-.36.1-.4.52-.83.55-.26.84-1,1.18-1.5,1.79.05.68.36,1.38-.3,1.63a14,14,0,0,1-.5,1.54,5.16,5.16,0,0,0,.67,2.33c-.09.55.47.45.58.79a1.21,1.21,0,0,1,.5.09c.11,0,.15.16.21.25s-.18.56,0,.75c.07,1.51,0,3,.25,4.67s0,3.36.25,4.87c-.13.14-.05.26,0,.42-.17.26,0,.59,0,.79.09.37-.05,1,.09,1.25.26.43.71.81.83,1.25.13.11.43,0,.38.34.6,0,.62.51,1.16.54.2.4.57.62.75,1,.2.09.43.13.51.33.48.1.77.4,1.29.46a3.7,3.7,0,0,0,.46.8,3.41,3.41,0,0,0-.17.33c.11.31-.07.45,0,.71,0,.47.52.72.5,1s-.4.51-.5.83a9.66,9.66,0,0,1,.21,1.88c-.55-.16-.84-.58-1.46-.67-.38-.45-1.14-.53-1.55-1A56.73,56.73,0,0,1,20,68.16c-.48-.6-1.27-.87-1.75-1.46-.19,0-.24-.15-.42-.17-.33-.47-.93-.68-1.2-1.21a26,26,0,0,1-4.13-3.92c-.52-.27-.72-.87-1.21-1.16,0-.18-.12-.19-.13-.34-.56-.52-.87-1.29-1.5-1.75a.75.75,0,0,0-.33-.5c-.56-1.23-1.43-2.15-2-3.42,0-.06,0-.18-.17-.16-.29-1.22-1.13-1.9-1.25-3.3-.06,0-.06-.13-.16-.12-.21-.79-.5-1.51-.75-2.25s-.23-1.88-.46-2.75a3.17,3.17,0,0,1-.17-.38,11.18,11.18,0,0,0-.17-2.17A6.45,6.45,0,0,1,4.31,41c-.26-.33.17-.84-.09-1.17.11-.2.22-.63,0-.79.12,0,.08-.09.13-.13a15.3,15.3,0,0,1,.5-2.58A6.53,6.53,0,0,1,5.14,35c.08-.15.09-.4.17-.58a2.46,2.46,0,0,1,.33-.75s-.09,0-.08-.12A3.75,3.75,0,0,0,6,32.22c.46-.63.63-1.55,1.12-2.16,0-.42.29-.58.38-.92a24,24,0,0,1,1.45-2.29c0-.24.2-.25.17-.5.37-.17.38-.68.75-.84V25.3a13.11,13.11,0,0,0,1.63-2.12c.88-.66,1.4-1.68,2.33-2.29,0-.36.35-.38.54-.59.05,0,0-.17.09-.21s.33-.14.46-.25.28-.49.58-.5c.24-.52.84-.68,1.13-1.16.59-.4,1.12-.86,1.66-1.3a.32.32,0,0,1,.21,0c.07,0,.08-.14.13-.21a31,31,0,0,1,3-2c.09,0,.08-.11.12-.17a5.64,5.64,0,0,0,1.3-.79c.15-.08.4-.06.41-.29a2.46,2.46,0,0,0,1.09-.63,1.36,1.36,0,0,0,.87-.45c1-.24,1.5-.9,2.46-1.13.58-.46,1.49-.6,2.09-1,.82-.08,1.18-.63,2-.71a13.53,13.53,0,0,1,2.17-.79c.13,0,.08-.16.2-.17.88-.1,1.39-.56,2.25-.67.8-.35,1.93-.38,2.59-.87,0,.09.15.1.29.08,1.4-.56,3.23-.68,4.71-1.17a4.69,4.69,0,0,0,1.42-.29c2.1-.09,4-.75,6-.66.1,0,.1-.13.17-.17,2.58-.06,4.66-.47,7.09-.25a7,7,0,0,1,2.75,0C61.86,4.34,61.61,4.49,61.75,4.5ZM100,44.23A6.18,6.18,0,0,0,99.69,42c-.35-.62-.59-1.17-1-1.71a2.64,2.64,0,0,1-.84-.79c-.19,0-.23-.07-.37-.09a1.83,1.83,0,0,0-.08-.25,4.15,4.15,0,0,0-2.46-.5c-.33-.1-.57.06-.84,0-.59.41-1.93.08-2.29.71-.15,0-.16.06-.29,0a.74.74,0,0,1-.21.25c-.4.08-.74.21-.79.63a1.87,1.87,0,0,0-1.13,1.54c-.54.38-.47,1.37-.42,2.13a1.81,1.81,0,0,1-.08,2c-.51,0-.74.48-1.12.75s-.84.31-1,.58v.5c.27.28.44.53.83.5.49-.24.84-.07,1.37-.12a2.72,2.72,0,0,0,.75-.29,2.64,2.64,0,0,1,.71-.25c.22,0,.34.14.42.16.42.11,1,0,1.42.17.78.27,1.92.1,2.87.33.14,0,0-.13.17-.08,1.64.63,2.88-1,4.34-.17a2,2,0,0,1,.29-.12c.79.14,1.58-.22,2.29-.09.42-.3,1.21-.23,1.13-1a1.42,1.42,0,0,0-1.67-.58c-.41-.19-.89-.3-1.29-.5A12.86,12.86,0,0,1,100,44.23Z"/></g></svg>