<svg xmlns="http://www.w3.org/2000/svg" xmlns:xlink="http://www.w3.org/1999/xlink" width="195" height="59" viewBox="0 0 195 59"><defs><path id="a" d="M345.03 83.682h3.579v8.393h.043l3.32-4.37h4.248l-4.506 5.304 4.376 6.762h-4.053l-3.385-5.805h-.043v5.805h-3.579V83.682m-8.189 4.022h3.364v1.283h.042c.302-.587.929-1.695 2.998-1.695v3.63c-1.66.044-2.824.391-2.824 2.218v6.63h-3.58V87.705m-8.236 9.067c1.552 0 2.868-1.283 2.868-3.044 0-1.761-1.316-3.044-2.868-3.044-1.553 0-2.868 1.283-2.868 3.044 0 1.76 1.315 3.044 2.868 3.044zm6.447-3.044c0 2.956-2.092 6.413-6.447 6.413-4.356 0-6.448-3.457-6.448-6.413 0-2.957 2.092-6.414 6.448-6.414 4.355 0 6.447 3.457 6.447 6.414zm-27.238-6.023l1.79 7.5h.043l1.962-7.5h3.019l1.983 7.5h.043l1.79-7.5h3.687l-3.665 12.067h-3.32l-2.006-7.805h-.043l-2.005 7.805h-3.321l-3.666-12.067h3.71m-5.628 0h1.725v2.74h-1.725v9.327h-3.58v-9.327h-1.768v-2.74h1.768v-4.022h3.58v4.022m-9.639 4.697c-.15-.718-.862-2.066-2.717-2.066-1.854 0-2.565 1.348-2.716 2.066zm.733 6.674a5.783 5.783 0 0 1-3.406 1.087c-3.428 0-6.34-2.805-6.34-6.392 0-3.37 2.631-6.479 6.275-6.479 3.644 0 6.318 2.914 6.318 6.588 0 .478-.043.674-.087.956h-8.97c.217 1.435 1.402 2.283 2.804 2.283 1.1 0 1.682-.5 2.177-1.13h3.666c-.582 1.348-1.423 2.391-2.437 3.087zm-25.098-15.393h3.515l6.167 10.11.043-.044-.172-10.066h3.902v16.089h-3.536l-6.08-9.784-.043.022.107 9.762h-3.903v-16.09m95.668-16.533h3.343v1.283h.042c.367-.587 1.122-1.696 3.256-1.696 1.142 0 2.414.479 3.061 1.044.648.565 1.382 1.522 1.382 3.892v7.544h-3.58v-6.588c0-.848 0-2.5-1.877-2.5-2.047 0-2.047 1.782-2.047 2.522v6.566h-3.58V67.149m-8.257 9.066c1.552 0 2.867-1.282 2.867-3.044 0-1.76-1.315-3.043-2.867-3.043-1.554 0-2.869 1.283-2.869 3.043 0 1.762 1.315 3.044 2.869 3.044zm6.447-3.044c0 2.957-2.092 6.414-6.447 6.414-4.356 0-6.449-3.457-6.449-6.414 0-2.956 2.093-6.413 6.449-6.413 4.355 0 6.447 3.457 6.447 6.413zm-18.286-6.022h3.58v12.067h-3.58zm0-4.022h3.58v2.74h-3.58zm-3.061 4.022h1.724v2.74h-1.724v9.327h-3.579v-9.327h-1.769v-2.74h1.77v-4.022h3.578v4.022m-13.366 9.11c2.242 0 2.997-1.914 2.997-3.088 0-1.456-.992-3.065-3.019-3.065-2.048 0-2.954 1.74-2.954 3.109 0 1.13.82 3.044 2.976 3.044zm2.997 2.957V77.91h-.043c-.604 1.174-2.091 1.718-3.493 1.718-3.795 0-6.016-3-6.016-6.458 0-3.956 2.825-6.435 6.016-6.435 1.962 0 3.061.957 3.493 1.696h.043v-1.283h3.58v12.067zm-10.738-4.588c-.646 2.74-3.04 4.979-6.274 4.979-3.623 0-6.404-2.87-6.404-6.457 0-3.544 2.738-6.414 6.317-6.414 3.17 0 5.736 2.109 6.34 5.066h-3.623c-.388-.826-1.1-1.696-2.587-1.696-1.703-.087-2.846 1.326-2.846 3.065 0 1.762 1.143 3.066 2.846 3.066 1.488 0 2.2-.87 2.587-1.609h3.644m-14.467 4.588h-3.385v-1.283h-.044c-.733 1.543-2.199 1.674-3.104 1.674-.734 0-2.459-.174-3.515-1.522-.949-1.196-1.078-2.065-1.078-3.718v-7.218h3.579v6.675c0 .826 0 2.413 1.919 2.413 1.035 0 2.048-.543 2.048-2.457v-6.63h3.58v12.066m-19.902-2.98c2.242 0 3.062-1.847 3.062-3.108 0-1.456-1.035-3.022-3.02-3.022-2.069 0-3.04 1.63-3.04 3.022 0 1.87 1.316 3.109 2.998 3.109zm3.04 2.98V77.91h-.043c-.302.5-1.164 1.696-3.58 1.696-3.622 0-5.994-2.826-5.994-6.457 0-4.087 2.89-6.414 5.93-6.414 2.113 0 3.126 1.044 3.514 1.435v-5.044h3.58v16.089zm-20.075-16.089h8.863v3.61h-4.96v2.5h4.809v3.608h-4.809v2.762h4.96v3.609h-8.863V63.127"/><path id="b" d="M250.37 63.307C246.446 59.77 241.768 58 236.338 58c-5.496 0-9.541 1.558-13.322 5.52v-3.218h-13.748v26.023c0 6.438-2.838 9.747-8.336 9.747-5.41 0-6.829-3.04-6.829-9.747V60.302H180v31.656c0 10.999 6.475 17.259 16.32 17.259 5.932 0 10.35-2.207 13.364-6.906v14.6h13.786V98.435c3.01 3.875 7.185 5.729 12.615 5.729 5.682 0 10.778-2.022 14.954-6.15 4.68-4.549 7.187-10.444 7.187-16.932 0-7.076-2.675-13.141-7.855-17.774zm-16.54 29.06c-5.86 0-10.361-4.392-10.815-10.373a12.44 12.44 0 0 1-.045-.998c0-.321.02-.634.045-.946.454-5.756 5.007-10.004 10.396-10.004 6.768 0 11.614 4.802 11.614 11.119 0 6.064-4.93 11.202-11.195 11.202z"/></defs><use xlink:href="#a" transform="translate(-180 -58)"/><use fill="#00b9e4" xlink:href="#b" transform="translate(-180 -58)"/></svg>