<svg xmlns="http://www.w3.org/2000/svg" xmlns:xlink="http://www.w3.org/1999/xlink" width="1000" zoomAndPan="magnify" viewBox="0 0 750 322.499991" height="430" preserveAspectRatio="xMidYMid meet" version="1.0"><defs><g/><clipPath id="10bb1edc1c"><path d="M 568.390625 226.855469 L 734.042969 226.855469 L 734.042969 241.890625 L 568.390625 241.890625 Z M 568.390625 226.855469 " clip-rule="nonzero"/></clipPath><clipPath id="8be1e132a1"><path d="M 583.285156 76.089844 L 598.023438 76.089844 L 598.023438 218.800781 L 583.285156 218.800781 Z M 583.285156 76.089844 " clip-rule="nonzero"/></clipPath><clipPath id="8c9dfe6b5c"><path d="M 613.515625 136.445312 L 628.25 136.445312 L 628.25 218.796875 L 613.515625 218.796875 Z M 613.515625 136.445312 " clip-rule="nonzero"/></clipPath><clipPath id="19b5728038"><path d="M 643.738281 106.234375 L 658.472656 106.234375 L 658.472656 218.796875 L 643.738281 218.796875 Z M 643.738281 106.234375 " clip-rule="nonzero"/></clipPath><clipPath id="c27a68b3b8"><path d="M 673.960938 182.039062 L 688.699219 182.039062 L 688.699219 218.796875 L 673.960938 218.796875 Z M 673.960938 182.039062 " clip-rule="nonzero"/></clipPath><clipPath id="5b68029d20"><path d="M 704.183594 174.398438 L 718.921875 174.398438 L 718.921875 218.796875 L 704.183594 218.796875 Z M 704.183594 174.398438 " clip-rule="nonzero"/></clipPath></defs><path fill="#4e0f53" d="M 19.523438 77.335938 C 17.402344 77.878906 16.113281 79 15.199219 81.125 L 14.324219 83.160156 L 14.40625 159.621094 C 14.53125 235.875 14.53125 236.085938 15.40625 237.539062 C 15.863281 238.332031 17.070312 239.453125 18.109375 240.035156 L 19.941406 241.078125 L 119.78125 241.078125 L 121.695312 240.203125 C 123.191406 239.496094 123.816406 238.871094 124.523438 237.457031 C 125.355469 235.667969 125.398438 235.085938 125.398438 221.023438 C 125.398438 206.671875 125.398438 206.464844 124.441406 204.675781 C 123.816406 203.511719 122.902344 202.554688 121.863281 202.015625 C 120.238281 201.140625 119.574219 201.140625 90.039062 200.933594 L 59.878906 200.722656 L 59.667969 141.027344 L 59.460938 81.332031 L 58.503906 79.957031 C 56.464844 77.128906 56.757812 77.171875 37.828125 77.089844 C 28.425781 77.046875 20.191406 77.171875 19.523438 77.335938 Z M 19.523438 77.335938 " fill-opacity="1" fill-rule="nonzero"/><path fill="#4e0f53" d="M 142.953125 77.378906 C 141.082031 77.796875 139.210938 79.707031 138.710938 81.582031 C 138.417969 82.578125 138.335938 110.035156 138.378906 160.082031 C 138.503906 237.042969 138.503906 237.082031 139.375 238.246094 C 139.832031 238.871094 141.039062 239.828125 142.039062 240.371094 C 143.867188 241.285156 144.078125 241.285156 160.964844 241.285156 C 177.855469 241.285156 178.0625 241.285156 179.894531 240.328125 C 180.894531 239.828125 182.097656 238.871094 182.558594 238.246094 L 183.429688 237.082031 L 183.429688 159.414062 C 183.429688 94.644531 183.347656 81.539062 182.847656 80.414062 C 182.558594 79.667969 181.601562 78.628906 180.769531 78.128906 C 179.269531 77.171875 179.144531 77.171875 161.796875 77.089844 C 152.1875 77.046875 143.703125 77.171875 142.953125 77.378906 Z M 142.953125 77.378906 " fill-opacity="1" fill-rule="nonzero"/><path fill="#4e0f53" d="M 201.195312 77.378906 C 200.445312 77.546875 199.320312 78.128906 198.738281 78.667969 C 196.574219 80.707031 196.410156 81.664062 196.203125 94.019531 C 195.953125 111.035156 196.410156 113.820312 199.902344 115.859375 C 201.234375 116.648438 202.273438 116.691406 220.871094 116.898438 L 240.421875 117.109375 L 240.632812 176.597656 C 240.796875 219.984375 240.964844 236.375 241.296875 237.125 C 242.003906 238.664062 243.542969 239.910156 245.582031 240.660156 C 247.078125 241.160156 250.03125 241.285156 263.054688 241.285156 C 280.277344 241.285156 281.898438 241.117188 284.019531 238.871094 C 286.472656 236.292969 286.390625 238.996094 286.390625 175.222656 L 286.390625 116.898438 L 305.445312 116.898438 C 323 116.898438 324.582031 116.816406 326.121094 116.109375 C 327.035156 115.691406 328.117188 114.945312 328.53125 114.488281 C 330.28125 112.53125 330.445312 111.074219 330.488281 97.222656 C 330.488281 81.207031 330.320312 80.167969 326.953125 77.960938 C 325.785156 77.171875 324.164062 77.171875 264.136719 77.089844 C 230.273438 77.089844 201.941406 77.171875 201.195312 77.378906 Z M 201.195312 77.378906 " fill-opacity="1" fill-rule="nonzero"/><path fill="#4e0f53" d="M 347.667969 77.421875 C 346.046875 77.917969 344.382812 79.832031 343.800781 81.914062 C 343.507812 83.035156 343.425781 108.203125 343.46875 159.996094 C 343.589844 235.917969 343.589844 236.5 344.421875 237.957031 C 344.921875 238.828125 346.046875 239.785156 347.128906 240.328125 C 348.957031 241.285156 349.167969 241.285156 365.847656 241.285156 C 384.734375 241.285156 385.773438 241.160156 387.5625 238.664062 L 388.519531 237.332031 L 388.519531 159.289062 C 388.519531 73.175781 388.726562 79.917969 385.859375 78.085938 C 384.359375 77.171875 384.152344 77.171875 366.679688 77.089844 C 356.652344 77.046875 348.417969 77.171875 347.667969 77.421875 Z M 347.667969 77.421875 " fill-opacity="1" fill-rule="nonzero"/><path fill="#4e0f53" d="M 404.535156 77.421875 C 402.664062 78.210938 402.039062 79.042969 402.039062 81 C 402.039062 82.828125 402.871094 84.785156 405.285156 88.488281 C 405.910156 89.484375 407.863281 92.5625 409.652344 95.351562 C 411.441406 98.179688 414.9375 103.628906 417.433594 107.539062 C 419.929688 111.40625 423.296875 116.773438 424.960938 119.394531 C 426.625 122.015625 428.789062 125.386719 429.746094 126.882812 C 430.703125 128.382812 435.445312 135.828125 440.269531 143.441406 C 450.296875 159.25 449.589844 156.753906 445.804688 162.578125 C 444.722656 164.199219 440.519531 170.773438 436.484375 177.136719 C 432.410156 183.460938 425.542969 194.191406 421.175781 200.933594 C 416.851562 207.671875 412.898438 213.871094 412.441406 214.660156 C 411.984375 215.449219 409.070312 220.027344 405.992188 224.8125 C 402.871094 229.636719 400.167969 234.253906 399.878906 235.128906 C 399.128906 237.625 399.792969 239.203125 402.039062 240.371094 L 403.914062 241.324219 L 423.878906 241.203125 C 443.683594 241.078125 443.890625 241.035156 446.261719 240.078125 C 448.964844 238.996094 450.796875 237.375 452.875 234.128906 C 453.667969 232.921875 458.949219 223.644531 464.648438 213.535156 C 470.304688 203.386719 475.089844 195.109375 475.296875 195.109375 C 475.757812 195.109375 476.589844 196.398438 483.242188 208.003906 C 500.800781 238.457031 500.589844 238.121094 503.460938 239.578125 C 506.539062 241.117188 508.828125 241.285156 529.171875 241.285156 C 547.808594 241.285156 549.015625 241.242188 550.46875 240.492188 C 552.09375 239.660156 553.050781 238.207031 553.050781 236.582031 C 553.007812 235.003906 551.675781 232.546875 545.726562 223.519531 C 542.566406 218.652344 537.699219 211.207031 534.953125 206.964844 C 532.207031 202.722656 527.507812 195.484375 524.46875 190.824219 C 521.476562 186.207031 517.605469 180.257812 515.898438 177.636719 C 514.195312 175.015625 510.785156 169.773438 508.289062 165.988281 C 505.832031 162.203125 503.628906 158.625 503.421875 158.042969 C 503.046875 157.085938 503.835938 155.710938 511.65625 143.480469 C 520.476562 129.796875 522.515625 126.59375 525.757812 121.558594 C 526.757812 120.019531 530.792969 113.695312 534.746094 107.539062 C 541.816406 96.515625 543.273438 94.226562 547.601562 87.570312 C 551.050781 82.246094 551.261719 79.792969 548.472656 77.878906 L 547.058594 76.921875 L 526.007812 77.046875 L 505 77.171875 L 502.960938 78.210938 C 499.71875 79.875 499.925781 79.542969 487.863281 100.46875 C 485.199219 105.042969 481.996094 110.578125 480.75 112.738281 C 479.5 114.902344 478.042969 117.441406 477.542969 118.355469 C 477.003906 119.269531 476.339844 120.019531 476.046875 120.019531 C 475.757812 120.019531 474.589844 118.4375 473.46875 116.484375 C 472.304688 114.527344 469.972656 110.492188 468.226562 107.539062 C 466.480469 104.542969 462.609375 97.929688 459.65625 92.8125 C 453.667969 82.496094 451.417969 79.667969 448.132812 78.167969 L 445.929688 77.171875 L 425.753906 77.089844 C 412.773438 77.003906 405.203125 77.128906 404.535156 77.421875 Z M 404.535156 77.421875 " fill-opacity="1" fill-rule="nonzero"/><g clip-path="url(#10bb1edc1c)"><path fill="#dc9542" d="M 568.390625 226.855469 L 734.027344 226.855469 L 734.027344 241.890625 L 568.390625 241.890625 Z M 568.390625 226.855469 " fill-opacity="1" fill-rule="nonzero"/></g><g clip-path="url(#8be1e132a1)"><path fill="#dc9542" d="M 598.023438 76.089844 L 598.023438 218.792969 L 583.285156 218.792969 L 583.285156 76.089844 Z M 598.023438 76.089844 " fill-opacity="1" fill-rule="nonzero"/></g><g clip-path="url(#8c9dfe6b5c)"><path fill="#dc9542" d="M 628.25 136.445312 L 628.25 218.820312 L 613.515625 218.820312 L 613.515625 136.445312 Z M 628.25 136.445312 " fill-opacity="1" fill-rule="nonzero"/></g><g clip-path="url(#19b5728038)"><path fill="#dc9542" d="M 658.472656 106.234375 L 658.472656 218.773438 L 643.738281 218.773438 L 643.738281 106.234375 Z M 658.472656 106.234375 " fill-opacity="1" fill-rule="nonzero"/></g><g clip-path="url(#c27a68b3b8)"><path fill="#dc9542" d="M 688.699219 182.039062 L 688.699219 218.824219 L 673.960938 218.824219 L 673.960938 182.039062 Z M 688.699219 182.039062 " fill-opacity="1" fill-rule="nonzero"/></g><g clip-path="url(#5b68029d20)"><path fill="#dc9542" d="M 718.921875 174.398438 L 718.921875 218.78125 L 704.183594 218.78125 L 704.183594 174.398438 Z M 718.921875 174.398438 " fill-opacity="1" fill-rule="nonzero"/></g><g fill="#dc9542" fill-opacity="1"><g transform="translate(689.151202, 96.862332)"><g><path d="M 15.921875 -19.859375 L 15.921875 -16.5625 L 10.1875 -16.5625 L 10.1875 0 L 6.28125 0 L 6.28125 -16.5625 L 0.546875 -16.5625 L 0.546875 -19.859375 Z M 15.921875 -19.859375 "/></g></g></g><g fill="#dc9542" fill-opacity="1"><g transform="translate(705.617478, 96.862332)"><g><path d="M 6.1875 0 L 2.578125 0 L 2.578125 -19.859375 L 7.71875 -19.859375 L 12.75 -5.265625 L 13.03125 -5.265625 L 18.03125 -19.859375 L 23.046875 -19.859375 L 23.046875 0 L 19.328125 0 L 19.328125 -13.125 L 18.984375 -13.1875 L 14.390625 0 L 11.109375 0 L 6.515625 -13.1875 L 6.1875 -13.125 Z M 6.1875 0 "/></g></g></g></svg>