<?xml version="1.0" encoding="UTF-8"?>
<svg id="Layer_1" data-name="Layer 1" xmlns="http://www.w3.org/2000/svg" viewBox="0 0 129.09 67.68">
  <defs>
    <style>
      .cls-1 {
        fill: #27396a;
      }

      .cls-1, .cls-2, .cls-3 {
        stroke-width: 0px;
      }

      .cls-2 {
        fill: #dc9542;
      }

      .cls-3 {
        fill: #231f20;
      }

      .cls-4 {
        fill: none;
        stroke: #231f20;
        stroke-miterlimit: 10;
        stroke-width: .42px;
      }
    </style>
  </defs>
  <line class="cls-4" x1="3.91" y1="44.51" x2="116.94" y2="44.51"/>
  <g>
    <path class="cls-3" d="m28.49,50.43h1.18l4.24,10.73h-1.12l-1.29-3.38h-4.85l-1.31,3.38h-1.06l4.21-10.73Zm2.7,6.53l-1.53-4.01c-.23-.6-.56-1.56-.56-1.56h-.03s-.3.91-.55,1.56l-1.56,4.01h4.23Z"/>
    <path class="cls-3" d="m35.19,55.8c0-3.24,1.92-5.6,5.07-5.6,2.36,0,3.91,1.26,4.29,3.26h-1.03c-.3-1.4-1.45-2.38-3.28-2.38-2.62,0-3.96,2.09-3.96,4.73s1.39,4.67,3.95,4.67c2.15,0,3.32-1.44,3.49-3.21h1.01c-.06,1.05-.48,2.1-1.15,2.81-.78.84-1.95,1.29-3.37,1.29-3.1,0-5.02-2.27-5.02-5.55Z"/>
    <path class="cls-3" d="m50.41,50.43h1.19l4.24,10.73h-1.12l-1.29-3.38h-4.85l-1.31,3.38h-1.06l4.21-10.73Zm2.7,6.53l-1.53-4.01c-.23-.6-.56-1.56-.56-1.56h-.03s-.3.91-.55,1.56l-1.56,4.01h4.23Z"/>
    <path class="cls-3" d="m58.16,50.43h3.96c3.29,0,4.77,2.22,4.77,5.4s-1.59,5.33-4.88,5.33h-3.85v-10.73Zm3.82,9.84c2.67,0,3.82-1.73,3.82-4.44s-1.05-4.52-3.71-4.52h-2.89v8.96h2.78Z"/>
    <path class="cls-3" d="m69.66,50.43h7.58v.89h-6.54v3.86h5.99v.87h-5.99v4.19h6.71v.93h-7.75v-10.73Z"/>
    <path class="cls-3" d="m80.19,50.43h1.42l3.85,9.36h.03l3.76-9.36h1.47v10.73h-1.01v-9.35h-.03s-.3.86-.53,1.46l-3.23,7.89h-.92l-3.26-7.89c-.23-.55-.55-1.46-.55-1.46h-.03v9.35h-.97v-10.73Z"/>
    <path class="cls-3" d="m97.05,56.48l-4.02-6.05h1.15l3.4,5.19h.03l3.43-5.19h1.12l-4.06,6.08v4.65h-1.06v-4.68Z"/>
  </g>
  <g>
    <g>
      <path class="cls-2" d="m14.14,9.8h8.23l10.24,26.56h-8.58l-1.35-3.9h-9.35l-1.35,3.9H3.94L14.14,9.8Zm1,17.31h5.72l-1.74-5.2c-.43-1.3-1.04-3.42-1.04-3.42h-.08s-.58,2.12-1.04,3.42l-1.82,5.2Z"/>
      <path class="cls-2" d="m40.21,20.27h.12c1.58-2.38,3.48-3.27,5.99-3.27.58,0,.97.07,1.2.19v5.98h-.15c-4.29-.71-6.8,1.15-6.8,5.42v7.76h-7.3v-18.94h6.95v2.86Z"/>
      <path class="cls-2" d="m54.27,26.51l-5.99-9.1h8.38l2.32,4.31h.08l2.28-4.31h7.77l-5.64,8.95,6.41,9.99h-8.38l-2.78-5.05h-.08l-2.94,5.05h-7.96l6.53-9.84Z"/>
      <path class="cls-1" d="m71.12,9.8h21.52v6.31h-13.44v3.6h11.24v5.83h-11.24v4.16h13.83v6.65h-21.91V9.8Z"/>
      <path class="cls-1" d="m93.52,26.84c0-5.94,3.55-10.03,8.81-10.03,2.82,0,4.21,1,5.49,2.6h.12v-9.62h7.3v26.56h-6.95v-2.64h-.08c-1.27,2.12-3.36,3.27-5.79,3.27-5.1,0-8.89-3.6-8.89-10.14Zm14.6-.11c0-2.71-1.47-4.86-3.63-4.86s-3.55,1.97-3.55,4.86,1.39,4.94,3.55,4.94,3.63-2.19,3.63-4.94Z"/>
    </g>
    <g>
      <path class="cls-1" d="m116.5,9.83h3.56v.48h-1.49v3.84h-.57v-3.84h-1.5v-.48Z"/>
      <path class="cls-1" d="m120.62,9.83h.72l1.46,3.59h.01l1.44-3.59h.74v4.32h-.54v-3.55h-.01s-.12.34-.2.54l-1.23,3.01h-.43l-1.23-3.01c-.09-.22-.2-.54-.2-.54h-.01v3.55h-.51v-4.32Z"/>
    </g>
  </g>
</svg>