<?xml version="1.0" encoding="UTF-8"?>
<svg id="Layer_1" data-name="Layer 1" xmlns="http://www.w3.org/2000/svg" viewBox="0 0 129.09 67.68">
  <defs>
    <style>
      .cls-1 {
        fill: #27396a;
      }

      .cls-1, .cls-2, .cls-3 {
        stroke-width: 0px;
      }

      .cls-2 {
        fill: #dc9542;
      }

      .cls-3 {
        fill: #231f20;
      }

      .cls-4 {
        fill: none;
        stroke: #231f20;
        stroke-miterlimit: 10;
        stroke-width: .42px;
      }
    </style>
  </defs>
  <g>
    <path class="cls-3" d="m21.01,50.43h1.19l4.24,10.73h-1.12l-1.29-3.38h-4.85l-1.31,3.38h-1.06l4.21-10.73Zm2.7,6.53l-1.53-4.01c-.23-.6-.56-1.56-.56-1.56h-.03s-.3.91-.55,1.56l-1.56,4.01h4.23Z"/>
    <path class="cls-3" d="m28.77,50.43h1.14l5.13,7.53c.56.81,1.11,1.77,1.11,1.77h.03v-9.3h1v10.73h-1.09l-5.12-7.44c-.51-.75-1.17-1.82-1.17-1.82h-.03v9.26h-1v-10.73Z"/>
    <path class="cls-3" d="m43.71,50.43h1.19l4.24,10.73h-1.12l-1.29-3.38h-4.85l-1.31,3.38h-1.06l4.21-10.73Zm2.7,6.53l-1.53-4.01c-.23-.6-.56-1.56-.56-1.56h-.03s-.3.91-.55,1.56l-1.56,4.01h4.23Z"/>
    <path class="cls-3" d="m51.46,50.43h1.04v9.8h5.94v.93h-6.99v-10.73Z"/>
    <path class="cls-3" d="m62.52,56.48l-4.02-6.05h1.15l3.4,5.19h.03l3.43-5.19h1.12l-4.06,6.08v4.65h-1.06v-4.68Z"/>
    <path class="cls-3" d="m73.18,51.33h-3.77v-.9h8.58v.9h-3.76v9.83h-1.04v-9.83Z"/>
    <path class="cls-3" d="m80.53,50.43h1.04v10.73h-1.04v-10.73Z"/>
    <path class="cls-3" d="m84.39,55.8c0-3.24,1.92-5.6,5.07-5.6,2.36,0,3.91,1.26,4.29,3.26h-1.03c-.3-1.4-1.45-2.38-3.28-2.38-2.62,0-3.96,2.09-3.96,4.73s1.39,4.67,3.95,4.67c2.15,0,3.32-1.44,3.49-3.21h1.01c-.06,1.05-.48,2.1-1.15,2.81-.78.84-1.95,1.29-3.37,1.29-3.1,0-5.02-2.27-5.02-5.55Z"/>
    <path class="cls-3" d="m95.95,57.68h1.05c.11,1.82,1.39,2.84,3.48,2.84,1.64,0,2.85-.8,2.85-2.25s-1.04-1.87-3.43-2.34c-2.06-.39-3.51-.99-3.51-2.87,0-1.71,1.5-2.84,3.73-2.84,2.48,0,3.73,1.29,3.93,3.14h-1.01c-.19-1.51-1.31-2.29-2.9-2.29-1.7,0-2.73.78-2.73,1.96,0,1.28,1.03,1.67,3.03,2.03,2.17.4,3.96.91,3.96,3.17,0,1.91-1.59,3.14-3.93,3.14-2.93,0-4.38-1.59-4.51-3.68Z"/>
  </g>
  <line class="cls-4" x1="3.72" y1="44.51" x2="116.75" y2="44.51"/>
  <g>
    <g>
      <path class="cls-2" d="m14.53,9.8h8.23l10.24,26.56h-8.58l-1.35-3.9h-9.35l-1.35,3.9H4.33L14.53,9.8Zm1,17.31h5.72l-1.74-5.2c-.43-1.3-1.04-3.42-1.04-3.42h-.08s-.58,2.12-1.04,3.42l-1.82,5.2Z"/>
      <path class="cls-2" d="m40.6,20.27h.12c1.58-2.38,3.48-3.27,5.99-3.27.58,0,.97.07,1.2.19v5.98h-.15c-4.29-.71-6.8,1.15-6.8,5.42v7.76h-7.3v-18.94h6.95v2.86Z"/>
      <path class="cls-2" d="m54.66,26.51l-5.99-9.1h8.38l2.32,4.31h.08l2.28-4.31h7.77l-5.64,8.95,6.41,9.99h-8.38l-2.78-5.05h-.08l-2.94,5.05h-7.96l6.53-9.84Z"/>
      <path class="cls-1" d="m71.51,9.8h21.52v6.31h-13.44v3.6h11.24v5.83h-11.24v4.16h13.83v6.65h-21.91V9.8Z"/>
      <path class="cls-1" d="m93.91,26.84c0-5.94,3.55-10.03,8.81-10.03,2.82,0,4.21,1,5.49,2.6h.12v-9.62h7.3v26.56h-6.95v-2.64h-.08c-1.27,2.12-3.36,3.27-5.79,3.27-5.1,0-8.89-3.6-8.89-10.14Zm14.6-.11c0-2.71-1.47-4.86-3.63-4.86s-3.55,1.97-3.55,4.86,1.39,4.94,3.55,4.94,3.63-2.19,3.63-4.94Z"/>
    </g>
    <g>
      <path class="cls-1" d="m116.89,9.83h3.56v.48h-1.49v3.84h-.57v-3.84h-1.5v-.48Z"/>
      <path class="cls-1" d="m121.01,9.83h.72l1.46,3.59h.01l1.44-3.59h.74v4.32h-.54v-3.55h-.01s-.12.34-.2.54l-1.23,3.01h-.43l-1.23-3.01c-.09-.22-.2-.54-.2-.54h-.01v3.55h-.51v-4.32Z"/>
    </g>
  </g>
</svg>