<?xml version="1.0" encoding="UTF-8"?>
<svg id="Layer_1" data-name="Layer 1" xmlns="http://www.w3.org/2000/svg" viewBox="0 0 89.24 90.07">
  <defs>
    <style>
      .cls-1 {
        fill: #27396a;
      }

      .cls-1, .cls-2, .cls-3 {
        stroke-width: 0px;
      }

      .cls-2 {
        fill: #fff;
      }

      .cls-3 {
        fill: #dc9542;
      }
    </style>
  </defs>
  <g>
    <path class="cls-1" d="m8.47,67.67h3.82l4.76,12.33h-3.98l-.63-1.81h-4.34l-.63,1.81h-3.73l4.74-12.33Zm.47,8.04h2.66l-.81-2.41c-.2-.6-.48-1.59-.48-1.59h-.04s-.27.98-.48,1.59l-.84,2.41Z"/>
    <path class="cls-1" d="m16.97,75.62c0-2.67,2.01-4.67,5.02-4.67,2.58,0,4.31,1.47,4.54,3.52h-3.27c-.18-.79-.57-1.24-1.31-1.24-1.04,0-1.54.91-1.54,2.4s.54,2.36,1.58,2.36c.83,0,1.24-.53,1.33-1.53h3.27c0,2.17-1.85,3.83-4.59,3.83-3.01,0-5.02-1.98-5.02-4.66Z"/>
    <path class="cls-1" d="m33.21,79.03h-.04c-.61.81-1.58,1.19-2.76,1.19-1.76,0-3.05-.91-3.05-2.64,0-1.95,1.56-2.52,3.32-2.71,1.94-.21,2.46-.43,2.46-.98,0-.48-.23-.84-.97-.84s-1.11.41-1.2,1.05h-3.21c.07-1.74,1.47-3.17,4.34-3.17,1.4,0,2.3.17,3,.59.95.57,1.42,1.47,1.42,2.64v4.4c0,.74.05,1.14.34,1.31v.14h-3.34c-.13-.21-.23-.48-.31-.97Zm.02-2.22v-.78c-.32.16-.74.29-1.31.41-.99.21-1.29.48-1.29,1,0,.59.5.84,1.06.84.79,0,1.54-.43,1.54-1.48Z"/>
    <path class="cls-1" d="m37.64,75.58c0-2.76,1.65-4.66,4.09-4.66,1.31,0,1.96.47,2.55,1.21h.05v-4.47h3.39v12.33h-3.23v-1.22h-.04c-.59.98-1.56,1.52-2.69,1.52-2.37,0-4.13-1.67-4.13-4.71Zm6.78-.05c0-1.26-.68-2.26-1.69-2.26s-1.65.91-1.65,2.26.65,2.29,1.65,2.29,1.69-1.02,1.69-2.29Z"/>
    <path class="cls-1" d="m48.78,75.58c0-2.66,1.99-4.67,4.88-4.67,1.44,0,2.53.45,3.37,1.19,1.11.98,1.63,2.55,1.6,4.29h-6.53c.2,1.02.77,1.64,1.79,1.64.59,0,1.02-.22,1.27-.66h3.28c-.2.79-.84,1.57-1.74,2.12-.84.52-1.76.74-2.92.74-3,0-5.01-1.97-5.01-4.66Zm3.32-.91h3.16c-.14-.98-.72-1.57-1.53-1.57-.93,0-1.45.6-1.63,1.57Z"/>
    <path class="cls-1" d="m59.69,71.2h3.23v1.31h.05c.65-1.02,1.52-1.59,2.91-1.59,1.22,0,2.14.57,2.6,1.53h.05c.79-1.17,1.81-1.53,3-1.53,2.24,0,3.21,1.52,3.21,3.53v5.54h-3.39v-4.93c0-.9-.31-1.48-1.17-1.48s-1.27.72-1.27,1.67v4.74h-3.39v-4.93c0-.9-.31-1.48-1.17-1.48s-1.27.72-1.27,1.67v4.74h-3.39v-8.79Z"/>
    <path class="cls-1" d="m76.34,80.39h1.13c.75,0,1.06-.19,1.06-.66,0-.28-.2-.74-.41-1.26l-2.92-7.28h3.57l1.13,3.54c.29.9.54,2.14.54,2.14h.04s.27-1.24.56-2.14l1.11-3.54h3.37l-3.12,8.79c-.77,2.17-1.85,2.91-3.7,2.91h-2.35v-2.52Z"/>
  </g>
  <g>
    <g>
      <g>
        <path class="cls-3" d="m66.76,11.66l-.14-.07c-2.96-1.53-10.95-5.13-21.23-5.38h-.44c-.19,0-.39-.01-.58-.01-10.27,0-18.63,3.77-21.75,5.39l-.11.06-1.11.57.09,1.24.06.78c.49,6.49,1.22,16.29,4.47,23.2,4.05,8.6,10.77,15.5,17.3,21.83l1.3,1.26,1.3-1.26c7.93-7.68,13.59-14.01,17.26-21.83,3.28-6.98,4.06-17.26,4.52-23.41l.04-.57.09-1.23-1.1-.57Z"/>
        <path class="cls-3" d="m23.37,13.31c.46,6.06,1.12,16.44,4.35,23.32,3.74,7.95,9.82,14.42,16.91,21.28,7.09-6.86,13.13-13.33,16.87-21.28,3.24-6.88,3.93-17.25,4.39-23.32-.04-.02-.09-.04-.13-.07-4.93-2.56-12.35-4.97-20.42-5.17h-.42c-8.51-.12-16.29,2.49-21.44,5.17h-.02s-.06.05-.09.06Z"/>
      </g>
      <g>
        <path class="cls-2" d="m23.47,13.27s-.06.03-.09.05c.46,6.06,1.12,16.44,4.35,23.32.81,1.71,1.72,3.35,2.73,4.94v-11.85c1.9.7,4.28,1.51,5.28,1.89v17.01c2.5,2.91,5.28,5.75,8.25,8.64V8.08c-8.14.08-15.54,2.59-20.5,5.17h-.02Zm7,3.64c2.31-.39,5.26-.38,5.26-.38v7.07s-2.27-.13-5.26-.81v-5.88Z"/>
        <path class="cls-2" d="m65.53,17.94c.15-1.69.27-3.27.37-4.62-.04-.02-.09-.04-.13-.07-4.93-2.56-12.35-4.97-20.41-5.17h-.03s0,49.16,0,49.16c6.79-6.61,12.57-12.92,16.19-20.61.9-1.91,1.6-4.1,2.15-6.38-2.82,3.14-6.98,6.86-10.09,9.6v-8.1c.51-.16,3.31-1.06,5.92-2.25,2.25-1.03,3.82-1.98,4.91-2.75.33-1.85.59-3.71.8-5.5-1.17.42-2.96.93-5.65,1.38-4.6.77-5.71.91-5.97.93v-6.91c.81.02,7.5.23,11.96,1.29Z"/>
      </g>
    </g>
    <g>
      <path class="cls-3" d="m52.81,55.66h3.25v.44h-1.37v3.52h-.52v-3.52h-1.37v-.44Z"/>
      <path class="cls-3" d="m56.57,55.66h.66l1.33,3.28h.01l1.32-3.28h.67v3.95h-.49v-3.25h-.01s-.11.31-.18.5l-1.13,2.75h-.4l-1.13-2.75c-.08-.2-.18-.5-.18-.5h-.01v3.25h-.47v-3.95Z"/>
    </g>
  </g>
</svg>